/* XPM */
static char *_1f6e0e232f54eb9fbc91fe4d996cbbfZOzpIMd6mmTXOKtO[] = {
/* columns rows colors chars-per-pixel */
"64 64 126 2 ",
"   c #65317F",
".  c #5F3183",
"X  c #622F80",
"o  c #682F8C",
"O  c #653484",
"+  c #683587",
"@  c #663985",
"#  c #6A3887",
"$  c #66348B",
"%  c #6A358D",
"&  c #67388C",
"*  c #6B398D",
"=  c #673491",
"-  c #6C3693",
";  c #6D3994",
":  c #6E369A",
">  c #6E399A",
",  c #703796",
"<  c #713B96",
"1  c #71379C",
"2  c #723B9C",
"3  c #783E9E",
"4  c #7336A2",
"5  c #753DA3",
"6  c #793EA4",
"7  c #7337A8",
"8  c #763CAA",
"9  c #7A3EAB",
"0  c #773EB0",
"q  c #7D3FB2",
"w  c #7F3FB8",
"e  c #734096",
"r  c #75419D",
"t  c #78429F",
"y  c #7640A3",
"u  c #7A41A5",
"i  c #7640AA",
"p  c #7C42AC",
"a  c #7F49AD",
"s  c #7E43B2",
"d  c #7E49B1",
"f  c #7E44B8",
"g  c #8145AE",
"h  c #8249AE",
"j  c #8245B4",
"k  c #8349B5",
"l  c #884BB7",
"z  c #8445BA",
"x  c #8846BE",
"c  c #854ABB",
"v  c #8848BA",
"b  c #894CB9",
"n  c #884DBA",
"m  c #894BBC",
"M  c #8949BF",
"N  c #8A4CBD",
"B  c #894CBE",
"V  c #8650B6",
"C  c #8B51BE",
"Z  c #8B54BF",
"A  c #8645C1",
"S  c #8A46C3",
"D  c #864AC1",
"F  c #8A4BC2",
"G  c #8B4DC2",
"H  c #894EC2",
"J  c #8C4BC6",
"K  c #8B4CC4",
"L  c #8B4DC4",
"P  c #894DC6",
"I  c #8D4DC5",
"U  c #8C46C9",
"Y  c #8E49C8",
"T  c #8C4AC8",
"R  c #8E4DC8",
"E  c #8E4DCA",
"W  c #914DC5",
"Q  c #924DCC",
"!  c #904ECD",
"~  c #964FCF",
"^  c #8C50C2",
"/  c #8D51C3",
"(  c #8B51C4",
")  c #8D51C4",
"_  c #8F52C9",
"`  c #8E51CA",
"'  c #9152C6",
"]  c #9153C6",
"[  c #9350C8",
"{  c #9253CB",
"}  c #9250CE",
"|  c #9354CD",
" . c #9950CF",
".. c #9955CE",
"X. c #9659CE",
"o. c #8E4DD3",
"O. c #9047D0",
"+. c #904DD1",
"@. c #934DD3",
"#. c #944FD1",
"$. c #984DD6",
"%. c #954DD9",
"&. c #994EDB",
"*. c #8F51D1",
"=. c #9250D0",
"-. c #9253D1",
";. c #9450D1",
":. c #9553D3",
">. c #9654D3",
",. c #9656D3",
"<. c #9557D5",
"1. c #9850D6",
"2. c #9953D6",
"3. c #9853D7",
"4. c #9856D5",
"5. c #9758D2",
"6. c #995AD5",
"7. c #9652DB",
"8. c #9953DB",
"9. c #9859DC",
"0. c #9B59DC",
"q. c #9B4EE0",
"w. c #9754E1",
"e. c #9B53E1",
"r. c #9C58E1",
"t. c #A05CE1",
/* pixels */
"2 c +.I u l 9 g ; 5 ;.;.2 2 #.#.p B G 5 ^ c < 5 5 5 k p 2 T #.p - v 4.v 9 L 2 6 c u < O ; ;.j 3 ' c [ k u 5 >.c < ' b < C Z 8 c ",
"; B } b ; ; > ; * ^ ;.v ; m 3.j ; 2 p j 3 2 u k > - 2 ; 2 F z % - J Q p p c - p u < V 5 p G u 6 F s l ^ p 6 >.s O 3 p k j u 5 8 ",
"g 3 2 2 ; c R 2 $ 2 2 p z 3.j O < j [ l < y p | c ( k 2 % - - k F T 5 O ; 2 u g 3 $ < R z - t >.} 2 : 8 2 9 F j 5 2 ; G p 2 B y ",
"k p l g 5 >.z < z z < k 3.~ 3 - c Q ..p u [ G u p l 2 p 9 - j Q +.c $ t k z v u u j 8 } z $ ; k 5 8 } j c } p - c [ t s c p p & ",
"5 9 B u < p * & L R ; ; 9 2 & j _ 4 c < > 5 p ; 2 - 3 T z - 9 s s ;   b 0.} 6 ; I 4.u > p u $ O % F R 2 k =.u - z p y p r 3 v B ",
"p c 3 O u u & - k p < * p 2 $ p p < k k p < 6 p ^ y F +.z = 2 - - 2 2 2 p p 2 ; s R - ; L l y p v s I c 8 5 3 _ c $ b l ; d S _ ",
"z p 3 p T k ; I x u 6 $ [ | 9 c p < < z u 6 ;.=.m 2 J #.9 4 Q j 3 F R 5 p k k | j 5 ; c >.p - R #.8 p c 5 > 5 B z 3 t p j S m > ",
"c 8 3 =.+.p 2 3.~ 5 9 z Q j - p 5 - u } 2 - j } p = z I 2 z 3.F 3 +.Q - 3 u u b 5 5 - p G 2 p Q +.Q 2 % z I s $ p ^ ; g m c j $ ",
"L ^ 2 s : - 3 ~ m 3 z %.S 1 j p 5 j k <.8 u j u 2 y [ p 2 Q &.j : S Q u k } 3 ; ; c p 2 5 3 l 6 x J 4 8 3.z L k y c c j 5 > 5 p ",
"G 5 < 6 5 9 W m - > I +.8 9 >.G p R k 9 s ;.=.y l v 9 6 9 +.Q 9 k ;.j ; z z < k y L k 4 l p 2 2 : s z k G 8 L D - s A 8 = 2 c >.",
"j ; p p c S 3.9 > 8 p 3 9 k k 2 - s B = 2 z z : s 4 - : 8 9 2 $ s ;.8 9 Q p 2 R p p 4 j >.v 5 G F m k 2 - 3 c s 8 8 s c R k 2 g ",
"- 2 >.c 2 A +.5 b ^ 1 p L 9 3 u u p k $ u F : D 0.8 ; G ) p k c s p 9 F k ; p G p 5 8 } I 2 s Q z 3 2 p p 5 5 s G 8 2 L } p 3 - ",
"u p j p - j I > 5 4 8 +.z - 6 } c > 5 2 3 p 1 j 3.z 2 k p 6 =.0.G & p R - - s 3 p 5 p } u $ z J < < ) _ s p 2 s s 4 8 6 6 3 C u ",
"G < $ p c u e - q w Q A 8 c 2 5 3 j } l % 5 j j Q c $ - j j 5 9 5 * l z 1 J F 2 z s ; 5 ; p T s ; S +.9 8 #.Q p p G ^ < g I L > ",
"2 2 c =.| y # k Q O.+.8 8 } 3 ; u p p u - p [ G s 2 $ j 0.s 3 p y p =.6 6 3.z 5 Q +.p - p 3.+.3 j 7.7.p u ;.~ < 2 [ b < u b k k ",
"u z 3.D : 2 < u v Q v 2 c G 6 u G ; 2 z z ; p a & 1 9 c m 2 2 2 - S 7.9 p +.5 5 Q c 3 3 ;.3.z ; [ 3.L < * 6 4 % g j - j u $ u >.",
"p 8 R p ; c G < & < 2 5 L 8 2 a j y [ 0.} - > 2 $ I +.5 & h Q I p L 7.k k k 2 B k % - k =.z - O p u $ O ; } D 5 ..u p 0.G ; p >.",
"6 z T 5 C z F L ; g } B - p j ; ; j k 8 p s [ C 2 R 7.s O 3 3.3.p < j 5 O * j ' ; 3 I R 5 $ ; 5 $ 2 p p u 7.R p _ p p j u 2 s =.",
"u 8 2 ; r < 9 R z u v g - F S - < g 5 > 8 u 2 8 8 R =.5 8 s z G ; * g _ d 6 } l $ 9 ;.l $ 2 R } ; k e.3.8 I z 5 p p t ; p s u h ",
"u 3 6 u O ; R w.} - ; - p [ p j l < - c ) 2 u p 5 c 8 3 Q 3.6 ; @ ; p >.G p j - p k p ; 2 I 3.z ; I 7.z - 2 - 2 p l - 5 | _ - $ ",
"k p p I l u s 9 2 # p D p ; - I z - h 8 2 - < p 8 - $ ; k c 2 $ p c d 8 < ; & 3 =.+.u * 2 J } 8 p 3.I : u p 2 2 G 9 5 s 4 2 2 z ",
"8 8 3 g l 3 < p u t 9 } s % k +.s 2 k p z c > s ( i s - $ - > - c w.7.< * r # p 7.Q 8 > 8 k 8 ; B b ; 3 b d B g g q } _ 9 p c p ",
"=.c 2 2 2 & 2 R Q p 5 z 2 % G q 8 p ; p r.T z c - k ;.p $ p J j 9 3.R ; p R p 2 k 4 > I R 5 O $ y % 2 k > s t.v 5 Q L 5 j 5.G - ",
"0.k c =.k 5 c R 3.j : 8 q p u 5 s z 2 2 s 2 ; - - 6 J 2 ; F +.F 3 8 p 2 F +.j 5 9 8 2 R F > p s p 5 _ R c z >.p k 9 1 p k p 6 p ",
"p 8 k z 8 9 p w Q g 4 } 0.j + p S z c c > y d 8 T 9 > - g Q +.T 2 $ 5 9 8 5 2 p _ R p F 9 > =.3.5 5 0.8.c 5 8 > ; y u b c 2 u 5 ",
"3 _ y ; x +.z 5 5 $ 6 j 6 6 g p 3 9 I p s G s T q.S 2 c L q c I j z +.;.5 p G ; > z R } < > =.S 2 c z 5 2 - R _ ; 2 ^ 8 9 c ; ; ",
"u ' 6 8 T F k ; O 3 R z - D +.3 $ s } 5 D k 5 +.&.z j >.z 4 p 2 9 #.7.S 2 p >.d 5 L 9 p ; p 3.z 5 G 2 u p p 3.S - p j 9 ) | s 8 ",
"3 u u s 2 2 G p 5 R 7.m - z =.b b s k 2 B u 2 z z - 5 9 : = 3 ; $ j s > $ j 8.c 5 D z ; ; S ;.k 2 8 z ~ [ v +.z 2 G s G p p b u ",
"| c p j 2 G k 3 z 7.T 1 9 R 8 ; p 5 4 p < $ ^ F 7 $ < p c p ^ _ z s p B m j B 8 % 5 Q p k ;.s y b 0 +.S p F #.k 2 _ z m 8 6 ; 2 ",
"G 4 c G 6 [ p 2 ~ Q 3 = R ;.2 $ $ 3 [ >.8 - Q A T y 2 } +.s 2 9 J k p I G * y z p 5 Q p u j p ; 2 8 G 9 - s p > y s 5 - k G 8 i ",
"z 8 p p 3 p r < R p o 9 F 8 2 ^ l L ;.9 s p 5 p } p z 7.T 1 ; z S 2 6 F 2 % L r.>.p c 8 < c k > z A k l c s > s ^ 2 2 y _ p s L ",
"^ B & < C p * ; 5 ; j 3.c ; L 8.F j p = s k $ $ ; 2 S +.9 % k >.j : R ;.2 2 c c p & 2 v B B 2 d e.F O 3 W G 5 G ) 5 p p C p p 0.",
"< c 9 2 p k > p C ; k >.5 ; [ z 9 - - j j > G ^ > v +.z $ 6 R Q 8 z 3.j $ b p r O ; j l ; 5 - p Q F $ ; < 2 - j p 5 k 2 - 5 - d ",
"2 z ;.p ; 2 - p k - 3 3 & 5 9 8 c ; k =.p y ..C 2 z S 3 < L +.p X j ' 2 @ C ^ t j J J 2 $ B [ 6 % 6 z j 5 ^ l < - $ 9 R o.L < j ",
"p 2 j ; k ;.z 8 2 F F u < L D k k < [ p ; $ 2 - : 2 2 < I ;.k $ $ 2 ; O O ; $ - J &.F ; z 0.;.<   j 7.S 9 c p p z p s S +.z - k ",
"3 - 2 ; c 0.} s 2 k G p p 7.3.u & > p O ; z k 2 [ I k 2 I p O 2 Q 3.p 3 c z < s D k > ; s G h & p 3.3.j u p > L 3.c 8 p p - $ 2 ",
"2 d c - - 5 8 p < 5 p & ; k 8 O t G k ; F 7.p - s g k : ; $ $ F e.7.2 l e.O.1 s p * y L c ; O 2 _ J 5 - G } 2 u p - % k 2 p [ R ",
"y z 3.c 2 s p * < _ I ; @ 2 s y l } k 5 3.I O 2 _ r > z > k J J U x < c 7.S - p 3 # z e.[ ; ; b c 2 - < k R p ; 2 z z j = c r.R ",
"5 s I b u _ h < 5 3.J ; ; L 7.c p u : j I u < k 9 ; 2 _ y F T j 9 u ; y p 2 2 ) p < c R y * k z - p [ p p R p 2 j ;.>.=.k p d 5 ",
">.k : ; < 6 2 c 9 2 9 2 8 3.c - - 2 m  .9 p >.l : c c 5 ; 2 p * $ $ 2 c p X 2 c 8 8 j k * t +.T 2 m 3.j < p 8 p T S 1 6 u % - 8 ",
"k y ; p c s z Q k > R p k Q ; p _ u v m j 5 c 2 k 7.c < p s z < y j +.R p 2 p 2 c c 5 k < p 7.S - F 8.k 2 p c s T x b j 6 p g [ ",
"u < 3 z p - Q +.9 9 3.j p c > L G > > : p t k 5 [ z - < D 7.#.5 5 z ' t u 3.Q j L k p X.t 5 [ u ; } Q 9 g k L s s p b k c | 8 k ",
"l 2 c ;.6 2 Q Q 4 z T - ; 8 k [ - 5 s L p ; k p ) 6 ; k f A z - 5 2 < # l 7.s , 9 2 2 l t h b $ y } 9 4 l 3 p L 2 2 2 $ < p p G ",
"6 5 9 Q j z J 4 - R F - B [ 8 8 2 | s p p k 5 2 3 - G R 5 l ; p R } u p [ j ; u ' 3 2 c k 3 - > 4 9 9 F [ 2 j Q z X.a p p p ( p ",
"j j u k I j 8 2 5 k z p [ z 2 2 z } 2 - s =.p 8 3 5 >.z 5 k 2 m 0.m 2 s z + * h u 3 G >.k & p Q x 6 j } p $ u 5 8 k $ [ [ 8 p , ",
"~ Q 5 * t $ - m k - z [ j - s 9 z c u p s p 1 S 9 8 s 5 p 2 p z q 3 2 9 4 2 g 5 O 6 z 2 u < k 7.J 3 c z - u p 2 ; 5 > b z 5 2 ^ ",
";.3.s O O p J +.p 5 Q 6 & - z W j 6 ; c =.c j ;.9 8 5 m b = k O.s O 2 k R [ p m W p u 5 ^ k p 3.k ; k } 5 _ 8.p u >.G - c 6.8 s ",
"p v u 3 j +.3.L < 6 ;.l # 9 Q B 2 < 2 L c 3 6 u j } S F 2 - T &.c 5 k c G j - Q 8.k ; p s u 2 z y t s >.6 l m 2 s I g < k I 5 j ",
"l < ; m 3.+.j 2 O < l ^ > J L 3 + p I 4 2 p % < u p 8 $ $ S &.z 3 v B p 5 - - ) b ; 5 m l < u ; ; I Q j ; , , p c 5 - ; p p u _ ",
"^ e 2 p F j ; $ 6 % & < > c 4 2 - z ;.3 6 L 4 ^ j ; ; * k 0.R < & < < 2 k v - 3 - 4 [ G 3 2 [ ) p k 3.: p ' 6 } R - 9 z k u u ; ",
"* O < 6 9 r + j } 3 ; 5 s j p G G 5 p < * k } ^ u h u ; b ) 2 & k j < b ) z c 5 k Q ~ u ; p G s 2 h c 6 [ ..u G l < L } h 2 c u ",
"p p 3 p c ; 3 %.+.8 k +.O.p 2 p k ; 6 j 5 2 p * < 2 j s < * < j 8.3.5 r y 4 g > ^ c ; ; ' ) 2 u W k & 6 J 9 2 p * < I j 6 g _ h ",
"z } m p G < s 7.z - p %.O.8 - 2 - 2 R ;.c $ $ 2 k 6 j 7.F ; p R #.x 2 * % 2 5 ; > ; < < _ k - l } p $ p j 1 m c < 2 2 6 6 9 s ; ",
"5 p c 8 k ; z #.5 $ 5 k p ; m I 5 p ~ v - 2 B G 6.8 9 7.G * ; p 5 & - G W W j ; 5 G B 5 p } p r u k p L B - j s p s . p 3 j B 2 ",
"B 3 l p h 2 S S 1 k c 8 ; 2 Q O.8 u g ; 2 8 s [ j ; 5 d - y p > ; 5 5 R +.S 9 y k c 9 p p k 3 * p o.T S s 5 3 p R I > ) p p [ 4 ",
"k 2 2 ; ; p c 3 u 3.3.[ 5 8 ~ #.p % + < I j 5 s > $ s c ; G 5.u p 8.j 5 5 2 p I g ; p >.c 5 p j 9 o.R 4 2 k 2 p ..p u I s $ 8 p ",
"9 c 2 g J j - $ 3 #.+.x p u I x 2 3 9 F k 5 x R z s R G 2 } F 6 m 7.D : z c y j C u p s 3 b 0.z 2 R R c p c k 2 p 2 B j p 5 z j ",
"j l - S $.j u B 8 T z 1 c p > 2 ; 3 Q S 2 k x Q s k Q p - I p u I R 5 j 7.s u ..l > c j - p 3.w 9 R 9 8 9 >.p u p p T I h 5 R k ",
"y 2 u j Q 9 p B p _ p 2 c 8 p L b y } j 2 c 4 s 6 5 j ; ; j ; 2 F _ 5 j >.3 - 9 6 5 p 4 p c 9 A z ; < 8 4 m 3 y d p R G ; - q s ",
"; c j 3 T z 5 k s *.j p p z c 9 2 < p 5 k L k c c 6 a < F k % k Q s : 8 5 2 I [ j p k 5 R z 4 3.u ; F I ; $ u R p , 8 2 * p >.c ",
"u R p 3 ~ S y k 8 k 6 u G =.5 s c > 5 z R 8 - c c - $ p +.S 8 9 m j p c 9 9 c k 5 p s 8 Q z 9 R & j 8.Q 2 3 _ R 9 v m 2 > m s 8 ",
"p G y j 7.S ; - p 8 2 5 _ z % k _ p s =.G % = 5 8 - 8 Q R 9 5 5 s p u 3 m G 2 p 2 c } p I J m p * ^ 8.j 1 J } p 8 =.I > s I 2 > ",
"5 5 ; u G j $ 3 } 3.=.p 2 $ < p 5 : 5 9 % - D ;.*.s z R p $ p >.} - + l >.6 < [ g y j 2 6 p 5 4 g l s 5 j Q p 8 j 4 7 p p z I ; ",
"G k 2 + # > ; l 3.R B t O 2 >...; 5 D g - c +.+.F 2 5 p ; ; k J z - j ) p & ; h r < u * u 3 2 ;.4.8 = 2 u u p I v 2 s R 2 c >.2 "
};
