/* XPM */
static char *_9bd9d0226b5474bcfe7e37da7be19507TToGDQA6QZHfywP[] = {
/* columns rows colors chars-per-pixel */
"64 64 235 2 ",
"   c None",
".  c #010105",
"X  c #0B0103",
"o  c #02030B",
"O  c #0B030B",
"+  c #01090E",
"@  c #03090D",
"#  c #08090A",
"$  c #130103",
"%  c #1C0202",
"&  c #15040B",
"*  c #1C040A",
"=  c #13090B",
"-  c #1C0B0B",
";  c #1A0B05",
":  c #010311",
">  c #010511",
",  c #030512",
"<  c #0B0511",
"1  c #030B13",
"2  c #0A0B13",
"3  c #010A19",
"4  c #010D1D",
"5  c #040C1A",
"6  c #0A0C1A",
"7  c #02071B",
"8  c #1D0511",
"9  c #120B13",
"0  c #1A0B14",
"q  c #150E1A",
"w  c #150817",
"e  c #041215",
"r  c #0B1415",
"t  c #05121C",
"y  c #0B131B",
"u  c #05191A",
"i  c #1A1315",
"p  c #14121C",
"a  c #19121A",
"s  c #131309",
"d  c #220304",
"f  c #2A0305",
"g  c #25040A",
"h  c #2B0B0C",
"j  c #290708",
"k  c #340606",
"l  c #3B0504",
"z  c #3D0B06",
"x  c #310509",
"c  c #340B0B",
"v  c #3B0D0D",
"b  c #36080B",
"n  c #38110D",
"m  c #2A0511",
"M  c #240B13",
"N  c #2A0B14",
"B  c #240F19",
"V  c #2C0E1A",
"C  c #340C12",
"Z  c #390C18",
"A  c #2B1315",
"S  c #24121C",
"D  c #29151A",
"F  c #331313",
"G  c #33141B",
"H  c #3C131C",
"J  c #371518",
"K  c #2C130B",
"L  c #020C21",
"P  c #0F0D20",
"I  c #031323",
"U  c #0A1323",
"Y  c #061B25",
"T  c #041A2C",
"R  c #0B1B2B",
"E  c #1D1522",
"W  c #1E1C2C",
"Q  c #191B25",
"!  c #0B1B32",
"~  c #261622",
"^  c #2C1224",
"/  c #2B1924",
"(  c #231D2A",
")  c #2A1C27",
"_  c #331B29",
"`  c #381623",
"'  c #2A1B34",
"]  c #1C202C",
"[  c #1F2426",
"{  c #092337",
"}  c #182437",
"|  c #26212B",
" . c #3A2527",
".. c #3A2537",
"X. c #430503",
"o. c #450A05",
"O. c #4A0B06",
"+. c #430B0B",
"@. c #4C0C0B",
"#. c #490607",
"$. c #540C03",
"%. c #5B0D03",
"&. c #530D0C",
"*. c #5B0D0B",
"=. c #5D000D",
"-. c #44110C",
";. c #4C120D",
":. c #491306",
">. c #5B150B",
",. c #58170D",
"<. c #470C14",
"1. c #4E1812",
"2. c #43161B",
"3. c #4B1319",
"4. c #43191A",
"5. c #4D1A1C",
"6. c #481513",
"7. c #531512",
"8. c #5B1512",
"9. c #551B12",
"0. c #53161D",
"q. c #541B1C",
"w. c #5B1B18",
"e. c #670B07",
"r. c #7B0A07",
"t. c #66120A",
"y. c #6B150D",
"u. c #691B0C",
"i. c #651607",
"p. c #74160A",
"a. c #641414",
"s. c #661A15",
"d. c #761919",
"f. c #6F0E12",
"g. c #46211C",
"h. c #5C2118",
"j. c #752418",
"k. c #421B24",
"l. c #4A1B22",
"z. c #491424",
"x. c #521922",
"c. c #6D1A23",
"v. c #492325",
"b. c #582227",
"n. c #522734",
"m. c #732523",
"M. c #783A3A",
"N. c #6C2F2F",
"B. c #122E46",
"V. c #473B48",
"C. c #443D5B",
"Z. c #53485C",
"A. c #66475A",
"S. c #7A4753",
"D. c #4C5068",
"F. c #66516C",
"G. c #65556F",
"H. c #8D0B04",
"J. c #820F08",
"K. c #990901",
"L. c #861508",
"P. c #931205",
"I. c #A20C01",
"U. c #A80C00",
"Y. c #AE1403",
"T. c #A31707",
"R. c #B41204",
"E. c #B21C16",
"W. c #932A15",
"Q. c #802110",
"!. c #AC210A",
"~. c #BA3616",
"^. c #B4250F",
"/. c #852E22",
"(. c #C91402",
"). c #C11B07",
"_. c #D41704",
"`. c #CA2708",
"'. c #DB240B",
"]. c #DA2705",
"[. c #CE3218",
"{. c #E32605",
"}. c #ED2C04",
"|. c #E72603",
" X c #E93605",
".X c #F43104",
"XX c #FB3403",
"oX c #FA3A09",
"OX c #EE2E0E",
"+X c #D24914",
"@X c #FC4403",
"#X c #FD4D03",
"$X c #F94208",
"%X c #FD5403",
"&X c #F75800",
"*X c #FD5C02",
"=X c #FC5109",
"-X c #F54916",
";X c #FD6502",
":X c #FC6B02",
">X c #FF6709",
",X c #FD7403",
"<X c #FD7B02",
"1X c #FF750A",
"2X c #FF6418",
"3X c #C55832",
"4X c #88474A",
"5X c #8A4F57",
"6X c #AA594F",
"7X c #A86250",
"8X c #8D5561",
"9X c #935563",
"0X c #A75B63",
"qX c #9E6269",
"wX c #85677B",
"eX c #9A6579",
"rX c #AE646C",
"tX c #B86568",
"yX c #A36B7C",
"uX c #AA6574",
"iX c #D66656",
"pX c #C86462",
"aX c #C77061",
"sX c #FE8501",
"dX c #FE8C02",
"fX c #FF810B",
"gX c #FE9801",
"hX c #FE9706",
"jX c #796684",
"kX c #9C6C83",
"lX c #9A7086",
"zX c #957690",
"xX c #A77487",
"cX c #B87785",
"vX c #C68089",
/* pixels */
"                                                                                                                                ",
"                                                                                                                                ",
"                                                                                                                                ",
"                                                                                                                                ",
"                                                                                                                                ",
"                                                                  . . .                                                         ",
"                  4 L 4 o o o                                   o > o o                                                         ",
"              I 4 t 4 4 3 1 o o o                               o : o o                       3 5 . o 7 o . .                   ",
"              I I t 4 I 4 4 4 o . . 3                           5 o o o                       R U . 1 o o                       ",
"            . @ o 4 L 3 o > > 3 o o . 5                     1 o > o o o               I I I : o . . . 6                         ",
"                o . o 1 + + o : o . . o o           o , . . o o o o o o               L 4 : o . o . 1                           ",
"                  @ , o . . @ 1 > > o o o o         > . o   . + o o . o                 1 1 .     o                             ",
"                      > 1 o . . o 1 5 t 1 o :       o o ,   o o + . o o               3 o o     @ U                             ",
"                T o o # # @ + > o . . @ @ 1 o o     o o 1 o o @ o o . o       o       + . 1   o o                               ",
"                            o o o o . o + e 3 o     o o   o 1 > o o o o             3 o o > o o @                               ",
"                                . . . . . . 1 1 > > o o o > o @ o o o .         , > > @ @ @ o o o                               ",
"                                  . o o o o o 5 > . o > o o o o o o > o 3     7 2 o 1 o o       1                               ",
"                                    . + o . o 1 3 o . o . . @ o o o o o >   > o o o 1 o U   : 2 o                               ",
"                                      . o o o 1 e o . 1 o o o o o 1 o o r 1 @ o . o o o . o o                                   ",
"                                        o o o + 1 o . 9 > o o . 1 2 3 0 g . o 1 o 1 o o o 1 o                                   ",
"                                        t . o 1 t o . O e 3 o 3 e * M k 0 > , t o e 1 e o . o                                   ",
"                                          o o . o 3 o & v q > 3 v l b * : . o t 1 . . . o , +                                   ",
"                                  > 4     I o o o 1 1 X f -.g h O @.d i o 5 t i . . o 6 , @ o       t y                         ",
"                  3 o o t t         o 9 1 o . 1 > 1 t : %.z $.P.X.*.-.$ 1 r f X . o > 1 o o     1 r . # 1                       ",
"                        2 o >           # 2 1 o 1 e y w v #X X'.Y.r.l r.-.% . , 5 o 1 1     4 t 1           t                   ",
"                        1 o y ,           $ f k X * z +.n =X@X{.Y.R.+XE.#.: o o 1 I 1 3 1 1 y o o                               ",
"                          + o > 4         U o $ % l %.H.Y.>X*X@X.XI.o.% O o o 5 Y u u u y 2 . >                                 ",
"                            o t > 3 5 3 o , 1 < = e.J.-X:X&X;X#X_.`.I.:.p y i c k ; . .     .                                   ",
"                              e 3 1 o > 5 O x $ d.c W.(.=X;X*X@X#X#XK.,.t % x l *.>.0 9 1 a 9 y t                               ",
"                              . u Y Y Y U y 6 o #.$.oX;X:X2X}.#X*X#X X^.=.$ & o o : . .     o +.h 9         t                   ",
"                              o @ @ o @ o o 2 y n ~..X%X*X*X:X,X:X@X XK.@.A 9 @ 3 1 o ,           g h                           ",
"                        X y I o . . . . . . @ # 9.>.^.@X%X*X;X%X#XOX@X'.X.'.$ X . @ 6 @ 6         < - . R 1                     ",
"                            ! o     o o o . . o 4.;.T.#X#X@X*X*X:X*X#XoXt.;.# 2 # a . y 6       L 3.@                           ",
"                            6 @     o . o o . . . 1.`.@X,X,X<XsX;X*X;X#Xe.#.s 9 a , 2 2 6   5 1 w = <                           ",
"                            X X     1 @ 1 o o o X . P.*X*X<XdX<X&XsX<X>Xe.+.b A 1 a o 2 < o 1 V 0 o O                           ",
"                          L = M 6 6 o 0 . @ 8 x e.K.}.%X X,X:X,XdXsX<X<XJ.8.u.O . X p I : P q . o o                             ",
"                          6 2 2 B ` o o X o H M.*.P. X#X*X,XhXgXgXsXsX:Xp.`.m . > 7 a.m 2 = 2 o > o +                           ",
"                          1 o o o , . A #.. & < <.!.{.%X:X<XgXdXsXfX$X!.s.D D i B 9 2 . . o . 9 1                               ",
"                { I t e 1 2 o o     o . w.@ o . 8.H.].#X;XsXsX<X;X:XI.[.g.r o # . X @ 6 : > o . j     I                         ",
"                  { 6 , < o @ o > : o . . k o 7X3.H.{.@X#X:XdXdX1X;XI.L.g.. o . o o . . o @ o @ X 1 3                           ",
"                      2 @ o < : !     o o C O 0 O r.R.%X*X:X;X1X<X;X~.X # p 6 o . . . @ o         . t                           ",
"                      1 o {           o o @.X < O w.(.`.;X1X:X>X*X%X(.X . o @ o o o . o             o 1                         ",
"                      1               o o N X o o M I.XX#X#X*X;X*X|.H.l . . @ o o o o o               3 <                       ",
"                      2               o @ O o.. , X u.].@X@X;X*XoXY._.e.. . o o o . . . I                                       ",
"                      ,             ! , . . 7.. O d w.{.|..XXX'.R.U.y.% #.o o . o . . o o                                       ",
"                    B.@ {         L . o o . c X & X A )..X|._.}.$XL.u.%.p.* . . o o . o o T                                     ",
"                  T 2 , >     o . . o : . o o W.$ <.@.r.e. XXXOXa.%.M X . . o . . . . o o ,                                     ",
"                  o o . O : o o o . o o 3 o 0 8 g % b u.e.P.$.@.&.X . . . . . . . o . . o . o o                                 ",
"                    B.{ y . q o , > , . . . . . . . * ,.i.r.% d X . . X o . . . . . o o . o o o o o . 7                         ",
"                    T I 3 . . . . . . . . . . . . N t.. v d $ k . O.@.c X X . o . o o . . . o . . . . . o                       ",
"                  I I U o . O $ $ g g * 8 & * K +.a.d.r.u.g o.t.X.%.t.$.X.f . . , o . . . . o o 6 : . . o t                     ",
"              I U U U 5 & & - g g g x f f Z q.x C v d Z 8.d l +.p.i.*.O.X.o.z 1.o.2.< > 3 > > 1 5 S H 9 }                       ",
"              C.V...S ~ / S G B V G 0.7.C 3.C c.<.O.i.$ F +.*.7.a.y.i.>.t.p.s.x.4.5.8.z.F B 6 H C D h v H                       ",
"              a S E E W q V 0 B G M 2.h M 5.n 5.x.1.H q.G v.8.s.7.-.d.8.>.h.5.G 6XiXpX/.Q.W.H 5X4Xk.` B N `                     ",
"              E ( W ( ~ m S E ` G E 2.l.l.6.2.c.Z 5.0.L.- z.9.;.q.9.d.N -.+Xm.0.M.pXtXtXrX5XuXq.l.8XS.^ ` ^ H                   ",
"              | W Q / ^ ^ A.A.Q  .p q S 2.3.h J b.0X2.$.; k.-.e.d.>.j.s.g.1.l.A h.h.rXuXyXeXyXxXlX                              ",
"              E Q ] _ ..F.F.) A / / ~ q l.4X0XrXtXM.0.a.b.9 Q.aX&.s.h.j.z.3Xv.9Xm.' b.eXeXeXwXlX                                ",
"                  >.C.Z.' 4.) ( ( ) S a  .n.8X9XN._ u.qX2.` q N.pXv.S.4Xq.F 4.b.qXk.x.V.lXlXzXF.                                ",
"                  E y D.] Z.G.jX` V._ _ 6 6  .k.j.A.xXxXcXcX9XS  .vXcXxXxXyXkXwXo r u [ v.| '                                   ",
"                                                                                                                                ",
"                                                                                                                                ",
"                                                                                                                                ",
"                                                                                                                                ",
"                                                                                                                                "
};
