/* XPM */
static char *_eaa925bf607492bca3e898cef3b4ac1aW2BZ21Kdv7RDp82[] = {
/* columns rows colors chars-per-pixel */
"64 64 246 2 ",
"   c #010105",
".  c #0B0103",
"X  c #02030B",
"o  c #0B030B",
"O  c #02090D",
"+  c #08090A",
"@  c #130103",
"#  c #1C0202",
"$  c #15040B",
"%  c #1C040A",
"&  c #160A09",
"*  c #1C0B0B",
"=  c #131309",
"-  c #020512",
";  c #080515",
":  c #030B13",
">  c #0A0B13",
",  c #030C1B",
"<  c #0A0C1A",
"1  c #120B13",
"2  c #170916",
"3  c #1A0B14",
"4  c #041215",
"5  c #081616",
"6  c #05121C",
"7  c #0B131B",
"8  c #1A1315",
"9  c #15121C",
"0  c #19121A",
"q  c #220304",
"w  c #2A0305",
"e  c #25040A",
"r  c #290708",
"t  c #2B0B0C",
"y  c #3B0504",
"u  c #370909",
"i  c #340B0B",
"p  c #34110C",
"a  c #240B13",
"s  c #290B16",
"d  c #340C12",
"f  c #390C18",
"g  c #2B1315",
"h  c #24121C",
"j  c #29151A",
"k  c #351415",
"l  c #33141B",
"z  c #3C141B",
"x  c #342B1F",
"c  c #020C21",
"v  c #0F0D20",
"b  c #031323",
"n  c #0A1323",
"m  c #0E172D",
"M  c #061A29",
"N  c #1C1522",
"B  c #1B1B28",
"V  c #2B1A24",
"C  c #281926",
"Z  c #361825",
"A  c #240F35",
"S  c #271438",
"D  c #1C212A",
"F  c #092337",
"G  c #182437",
"H  c #342229",
"J  c #382536",
"K  c #430503",
"L  c #480906",
"P  c #430B0B",
"I  c #4C0C0B",
"U  c #5B0D03",
"Y  c #570C09",
"T  c #44110C",
"R  c #4B120B",
"E  c #5B150B",
"W  c #58170D",
"Q  c #470C14",
"!  c #491616",
"~  c #43161B",
"^  c #4D1A1C",
"/  c #5B1512",
"(  c #551816",
")  c #541B1C",
"_  c #670B07",
"`  c #7B0A07",
"'  c #671509",
"]  c #691B0C",
"[  c #74160A",
"{  c #6F0E12",
"}  c #651815",
"|  c #761919",
" . c #46211C",
".. c #5C2118",
"X. c #752418",
"o. c #471724",
"O. c #4A1B22",
"+. c #521922",
"@. c #44183D",
"#. c #6D1A23",
"$. c #492325",
"%. c #582227",
"&. c #522734",
"*. c #6F2B2A",
"=. c #783A3A",
"-. c #321846",
";. c #391C55",
":. c #122E46",
">. c #473B47",
",. c #412157",
"<. c #43235E",
"1. c #443D5B",
"2. c #4A2768",
"3. c #532B73",
"4. c #562F75",
"5. c #562D79",
"6. c #62317F",
"7. c #53485C",
"8. c #76444F",
"9. c #66475A",
"0. c #4C5068",
"q. c #66516C",
"w. c #635C78",
"e. c #880C05",
"r. c #990901",
"t. c #861508",
"y. c #931205",
"u. c #A20C01",
"i. c #A80C00",
"p. c #AC1504",
"a. c #B41204",
"s. c #B21C16",
"d. c #932A15",
"f. c #B32910",
"g. c #852E22",
"h. c #C71603",
"j. c #D41704",
"k. c #CA2708",
"l. c #DA2509",
"z. c #CE3218",
"x. c #E82804",
"c. c #EE2E0E",
"v. c #E93605",
"b. c #F93506",
"n. c #D24914",
"m. c #FC4403",
"M. c #FD4D03",
"N. c #F94208",
"B. c #F95603",
"V. c #FD5403",
"C. c #FD5C02",
"Z. c #F54916",
"A. c #FD6502",
"S. c #FC6B02",
"D. c #FF6709",
"F. c #FD7403",
"G. c #FD7B02",
"H. c #FF750A",
"J. c #FF6418",
"K. c #C55832",
"L. c #88474A",
"P. c #8A4F57",
"I. c #AA594F",
"U. c #A85F5A",
"Y. c #8D5561",
"T. c #935563",
"R. c #926572",
"E. c #97667B",
"W. c #AE646C",
"Q. c #B86568",
"!. c #A66979",
"~. c #D66656",
"^. c #C86462",
"/. c #C77061",
"(. c #FE8501",
"). c #FE8A04",
"_. c #FE9703",
"`. c #5D3185",
"'. c #682F8C",
"]. c #653485",
"[. c #683686",
"{. c #66348C",
"}. c #6A358C",
"|. c #66398C",
" X c #6C398D",
".X c #673692",
"XX c #6C3693",
"oX c #6D3994",
"OX c #6E379A",
"+X c #6E3A9A",
"@X c #703796",
"#X c #713B95",
"$X c #71379D",
"%X c #723B9C",
"&X c #783E9E",
"*X c #7237A0",
"=X c #753DA3",
"-X c #793EA4",
";X c #763CA9",
":X c #7A3EAB",
">X c #7B3FB0",
",X c #6B429D",
"<X c #77459A",
"1X c #75419D",
"2X c #766380",
"3X c #7641A3",
"4X c #7A42A5",
"5X c #7844A9",
"6X c #7C43AC",
"7X c #7E43B2",
"8X c #7E49B2",
"9X c #7F49BB",
"0X c #987087",
"qX c #A67386",
"wX c #B97784",
"eX c #8145AE",
"rX c #8249AE",
"tX c #8245B4",
"yX c #8349B4",
"uX c #8849B7",
"iX c #8446BA",
"pX c #8847BE",
"aX c #854ABB",
"sX c #894BBC",
"dX c #8650B6",
"fX c #8B52BD",
"gX c #8647C2",
"hX c #8A47C3",
"jX c #874BC2",
"kX c #8B4CC3",
"lX c #8E4CCA",
"zX c #924DCC",
"xX c #8D51C3",
"cX c #8E51C9",
"vX c #9455C9",
"bX c #9253CC",
"nX c #8F4DD1",
"mX c #934ED3",
"MX c #994ED8",
"NX c #8F51D5",
"BX c #9553D3",
"VX c #9854D6",
"CX c #9653DB",
"ZX c #9953DB",
"AX c #9A59DA",
"SX c #9A56E0",
/* pixels */
"%XaXnXkX4XuX:XeXoX=XBXBX%X%XmXmX6XpXkX=XxXaX#X=X=X=XyX6X+XlXmX6XXXsXVXsX:XkX%X-XaX4X#X]. XBXtX&XvXaXvXyX4X=XBXaXoXxXuXoXfXfX=XaX",
"oXsXbXsXoXoX+XoX XxXBXsXoXpXVXtXoX%X6XtX&X%X4XyX+XOX%XoX%XkXiX}.XXlXzX6X6XaXXX6X4X#XdX=X6XkX4X-XkX7XuXxX6X-XBX7X].&X6XyXtX4X=X=X",
"eX&X%X%XoXpXlX%X].%X%X=XyXmXeX].#XtXvXuX#X3X6XbXpXxXyX%X}.XXOXyXkXlX*X].}.%X4XeX&X}.#XlXiXXX1XBXbX%XOX=X%X:XkXtX=X%XoXkX6X%XsX3X",
"yX6XuXeX=XBXiX#XyXiX#XyXVXzX&XXXaXzXvX6X4XvXkX4X6XuX%X6X:XOXiXzXBXaX}.1XyXiXsX4X-XtX=XbXiX}.oXyX=X;XbXtXaXbX6XOXaXvX1X7XaX6X6X|.",
"=X:XsX4X#X6X X|.kXlXoXoX;X%X|.tXcX*XaX%XOX=X6XoX%XXX&XlXiXXX6X7X7XoX6.aXAXbX-XoXkXVX4X+X6X4X}.].}.kXlX%XyXBX4XOXiX6X3X6X1X&XsXsX",
"6XaX&X].4X4X|.XXyX6XoX X6X+X}.6X6X#XyXyX6X%X=X6XxX3XkXmXiX{.%XXXXX    A 6X6X%XoX7XlXXXoXlXuX3X6XsX7XkXpX=X=X&XcXpX}.sXuXoX7XhXcX",
"iX6X&X6XlXyXoXkXpX, , , X X ;.pX6X#X#XiX4X-XBXBXpX%XlXmX=X*XzXiXA - X A 6XyXyXbXtX=XoXaXBX6XXXlXmX=X-XyX=XOX=XaXiX&X1X6XtXhXpXoX",
"pX;X&XBXmX6X%Xb , 6 , , , : X X X }.4XbX%XXXtXbX6X.XiXkX@XiXMXpXX - X X &X4X4XsX=X=XOX6XkX%X-X, ,   X , X     {.5XxXoXeXpXaXiX}.",
"kXxX%X7X+XXX%Xb b 6 , b , , , X     , cX=X4XtX3X%X%XvX6X%XlXMX7X, X X X tXbX&XoXoXpX6X%X=X%XyXm n   : X X iXkXyX3XpXaXtX=X+X=X6X",
"yX=X#X-X=X:X  O X , c - X - - - X X   , 6XBXBX%X6XiX:X%X:XmX: X - X X X 7XiX#XyX=XkXyXb b b - X       < pX=XkXjXXX7XgX;XXX%XaXBX",
"6XoX6X6XaXhXVX:XX X X : O O X - X     X X :XiXXX:X$XX -     X X X X X X lX6X#XlX6X6X%Xc , - X   X   : %XOX&XpX7X=X=X7XpXlXuX%X6X",
"XX%XBXaX%XiXmX=XyX- - X     O : - - X X X X +XiXAX=X-   X 6X  O X X   X 7XoX6XkX3X&X=XbX: :   zXiXX +X6X6X=X=X7XkX=X%XkXbX6X&XXX",
"4X6XiX6XXXtXkX+X=X*X;X- : X     X : , 6 : X - tXVX7XX X - -XX X O   X X XXXX7X&X6X=X6X, X X iXkXO n xXcX7X6X%X7X7X*X=X-X-X%XfX3X",
"kX#X{.6XaX4X1XXXM X X + + O O - X     O O : X X zXaXX X : X X O X X   X OXlXkXX tX7XoXO   : lXX X hXmX:X=XmXzX6X6XkXxX#XeXkXkX+X",
"%X%XaXBXbX3X[.yXzXmXmX;X;XbXX X X X   X O 4 , X +X|.X X ZXX : - X X X X =XVXiX=XzXzX- X X - X X O CXCX6X4XBXzX#X%XvXaX#X4XaXyXyX",
"4XiXVXjXOX%X#X4XsXzXpX%XpXkX&X%X            : : - - X X X - X O X X X   6XmX=X=X- - - O O O X X X VXkX#X X-X*X}.eXtXXXtX6X}.4XBX",
"6X;XlX6XoXpXkX#X|.#X%X=XkX=X%XrXeX  X X X X X , X   X - X X X X X X - X , yX%X, > X : X X iX}.].: 4X{.].oXbXkX=XvX4X6XAXkXoX6XBX",
"-XiXlX=XfXiXkXkXoXeXbXsXXX6X7XoXoXtX  O X   X : - X   X     O X X X X X -  X- X X X : X n {.- > X %X6X6X4XCXzX6XcX6X6XyX4X%X7XBX",
"4X=X%XoX1X#X:XlXiX4XsXeXXXkXgXOX#XeX=X  X X X : 4 X   : X X X X X : X X 7 : O X   X X X   X X cXoXyXSXVX=XkXaX=X6X6X1XoX6X7X4XrX",
"4X&X-X4X].oXlXSXbXXXoXXX6XvX6XtXyX#XoXaXX X X : : X   1 - X X   : > - 3 e   X : X : X X X : X iXoXkXCXiXXX%XXX%X7XuX}.&XbXcXOX{.",
"yX6X6XkXuX4X7X:X%X[.6XjX6XoXXXkXaX X6X=X6   X : 6 X   o 4 - X - 4 * a u 3 - - 6 X 4 : 4 X   X =X6XVXkXOX3X6X%X%XkX:X=X7X*X%X%XiX",
";X=X&XeXuX&X#X6X4X1X:XbX7X}.yXmX6X%XyX3XiXX X   X , X $ d 2 - , u y u % -   X 6 :       X - O oXsXsXoX&XaX8XsXeXtX>XbXcX6X6XaX6X",
"BXpX%X%X%X|.%XlXzX6X=XiX+X}.kX>X=X- , 6XSXb X X X : : . w T e t o I q 8 X , 6 8     X < - O X [.3X}.6 7 +X7XSXsX=XzXkX=XtXVXkXoX",
"ZXiXaXBXyX=XaXlXVX- X X 6 6 &X=X7X7XX 1 : X   : - : 6 - U y U y.K Y T @ : 5 w .   X - : X X 6X7X: 5   + : 9XBX6XyX:X$X6XyX6X-X6X",
"6X=XyXiX;X:X7X7XlXeX=XbX> X - 6XhXiXpXiX+ : : X : 4 7 2 u M.v.l.a.` y ` T #   - , X : : -XoX, 6 : %XAXAXaX=X6 +XoX3X4XsXaX%X6X3X",
"&XcX3XoXpXmXiX=X=X{.-XiX: X 7 - &X:XkX6X3X@ w u . * u P p V.m.x.p.a.z.s.K - X X : b : - : : 7 X X aXiX=X%XXXlXcXoX%XxX=X:XaXoXoX",
"4XxX-X=XlXkXyXoX].&XlXiXXXO X - , 7XcX+X9Xn X @ # y U e.p.D.C.m.b.u.L # . X X , M 6 6 5 7 >   - %XkX%X4X6X6XAXhXXX6XtX:XxXbX7X3X",
"&X3X4X7X%X%XkX5X=XlXCXpXXXiXX 6 - , , , X - : ; 1 _ e.Z.D.B.A.M.j.k.u.R 9 7 8 u u &     oXkX  yX+X;X9XzXvXaXmXiX%XkX7XkX6X6XaX3X",
"bXaX6XtX%XkXtX%XiXCXlX$X:XlX=X4 , : X - , $ u @ | u d.h.V.A.C.m.M.M.r.W 6 # r y Y E 3 1 : 0 1 7 6 ;XmXiX6XaXzXyX%XcXiXpX=X-XoX,X",
"kX*XaXkX-XvX6X%XzXzX%XXXlXBX%X  5 M M M n 7 < X L Y b.A.S.J.x.M.C.M.v.f.Y @ $ X X -     4XiXX P t 1 sX:XXX7X6 +X3X7X=XXXyXkX=X3X",
"iX=X6X6X&X6X1X#XlX6X'.:XkX;X%XX O O X O X X > 7 p f.b.V.B.C.S.F.S.m.v.r.I g 1 O , : X - #XaX8XoXyXe t 6XaX3X+X6XxX%X%X3XcX6X7XkX",
"xXsX|.#XfX6X XoX=XoXiXVX. 7 b X             O + ( E f.m.V.C.A.V.M.c.m.l.K x.@ .   O < O < sX%X7XSX; *   m : =XkXxX=X6X6XfX6X6XAX",
"#XaX:X%X6XyX+X6XfXoXyXBX=XoXF X -XXXX X X     X ~ R p.M.M.m.C.C.S.C.M.b.' R + > + 0   7 < =XOX6Xc ! O |.oX%XOX8X6X=XyX%XOX=XXX7X",
"%XiXBX6XoX%XOX6XyXOX%X&X|.=X< O aXoXX   X X       ! k.m.F.F.G.(.A.C.A.V._ L = 1 0 - > > < sX, : 1 & > tX=XxXyX#XOX}.:XlXnXkX#XtX",
"6X%XiXoXyXBXiX=X%XkXkX4X#XkX. . yX#X: O : X X X .   y.C.C.G.).G.B.(.G.D._ P u g : 0 X > > X : s 3 X o gX:XaX6X:XiX6X7XgXmXiXoXyX",
"&XOX%XoXaXZXbX7X%XyXkX6X3Xc & a < < X 3   O % w _ r.x.V.v.F.S.F.).(.G.G.t./ ] o   . 9 b - v 9   X X VX7X3X6XOXhXVXpX=X6X6XXX{.%X",
"%X7XpXXXXX=X=X6X#X=X3X|.oX< > > h Z X X . X z =.E y.v.M.C.F._._._.(.(.S.[ k.e   - , } t > > > X - X O XXkXbX%X4X6X}.}.yX%X6XvXlX",
"3XiXVXpX%X7X5X X#XcXkXoX[.: X X X -   g L X $ o Q s.x.V.S.G._.).(.(.N.f.} j j 8 s 1 >     X   1 : +X XoXyXlX6XoX+XiXiX7XXXpXSXlX",
"=X7XkXsX4XcXrX#XF b 6 4 : > X X 3X3XX   ) O X   / e.l.M.A.(.(.G.A.S.u.z. .> X +   . X < - X X   r 4XxXb 6XlX6X%XtXBXBXBXyX6X7X=X",
"BXyXOXoX#X-X+XaX;XF < - > X O X - - X     u X I.~ e.x.m.M.S.).).H.A.u.t. .  X   X X     X O X X . : - yX#X6X=X6XlXhX$X4X4X}.OX=X",
"yX3XoX6XaX7XiXzXtX+XkX> O X > - M 3XsXX X d o 3 o ` a.V.C.S.A.H.G.A.f.. + 9 < X       O X 6XNXjX}.  6 7X%X5XpX7XlXpXsXyX-X6XeXvX",
"4X#X&XiX6XXXzXmX:X:XVX: X F +XjXkX+X+XX X Q . o o / h.k.A.H.S.D.B.V.h..   X O X X X   X 1X=XvX3XoXvXX : 6XyXkX7X8X6XsXyXpXbX=XyX",
"uX%XaXBX-X%XzXzX*XiXlX: oX=XyXvXXX=X6XX X s . X X a u.b.M.M.C.A.C.x.e.y     O X X X X X 1XrXyX{.3XbX:X, v &X6XkXoX%X%X}.#X6X7XjX",
"-X=X:XlXtXiXlX*XOXlXkX> aXvX=X=X%XbX6XX O o K   - . ] l.m.m.A.C.b.p.j._     X X X       n #XoX+X*X:X:XkXvX#X6XzXiXvX6X6X6X6XcX7X",
"tXtX4XyXkXiX=X%X&XyXiX- kXiX%X%XiXxXm -     (   o q ) x.x.b.b.l.a.i.] q L X X   X     X X |.6XzXpX-XtXbX6X}.4X=X=XyX}.vXvX=X6X@X",
"zXzX=X X1X}.OXpXyXOX:.O F }.7X:X7Xc   X X   u . @ . g h.b.x.j.x.N.t.] U [ %     X X   X X M tXCXhX&XpXiXXX4X6X%XoX=X+XaXiX=X%XxX",
"BXZX7X].].6XlXmX6XM > - - }.iXX     X -   X X d.@ Q I ` _ v.b.c.{ U a .     X         X X - &XVXyXoXyXvX3XcXZX6X4XBXkXOXaXVX=X7X",
"6XsX6X&XtXmXVXkX#XX X   o - X X X   X X - X 3 3 e # u ] _ y.U I Y .               X     X   X X 1X1X6XvX-XuXpX%X7XlXeX#XyXkX%XtX",
"uX#XoXpXVXmXyXoX6.oX:.F 7   9 X - - -               % W ' ` # q .     . X           X X   X X X X X   ; oX@X@X6XpX=XXXoX6X6X4XcX",
"xX1X%X6XkXtXoX}.-XXXM b ,                         s '   u q @ y   L I t . .   X   X X       X           X xX-XcXlXOX:XiXyX4X4XoX",
" X].#X-X:X1X].tXpXb n n X   o @ @ e e % 3 $ % p P } | { ] e P ' K U ' I K w   . - X X       X X < -     X 6 4XkXuX#XkXbXrX%XaX4X",
"6X6X%X4XaX X%Xn n n n , $ $ * e e e w w w f ) u d u q f / q y P [ ' Y L K P y ( L ~ ; - - - - : , h z 1 G :X%X3X X#XkXtX-XeXcXrX",
"iXbXpX6XkX#X3X1.>.J h C V h l h l l ) R d ! d #.Q I ' @ k P Y ( } ] ' E ' [ } ) ~ ^ / o.k s < z d j r u z XXpXaX#X%X%X-X-X:X7XoX",
"=X6XpX=XyXoX7X0 h N N B 9 j 3 s l a ~ t a ^ k ^ +.! z ) l $./ } W T | / E ..^ l I.~.^.g.[ d.z P.L.o.Z h s Z tX7X6X7X`.6X%XtXsX%X",
"sX&XyX6XrX%XkXN V B V V s h N Z l N ~ O.O.T z #.f ^ ( t.* o.W R ( ( | s T n.X.) =.^.Q.Q.W.P.W.) O.Y.8.V Z V @.=XlXkX+XxX6X6XvX*X",
"yX%X%XoXoX6XaXD B B V V V 9.9.N H 9 2 h Q ! t l %.U.~ Y & o.T _ | E X.}  .! O.g ....W.!.!.E.qXqXE.2.S -.-.-.-.+XBX6X6XkX7X}.=X6X",
":XpX%XeXlXtX}.9 B D V J q.q.V g V V V 0 O.L.U.W.Q.=.+.} %.1 X./.I } ..X.o.K.$.T.*.S %.E.E.E.R.E.<.;.`.3X=XaX6X%X6X%XsXtX6X=XiXtX",
"yXaXXXhXMXtX3X2.{.E 1.7.V ~ V V V V h 0 Z &.Y.T.*.Z ] R.~ Z 1 *.^.$.8.L.) k ~ %.T.o.+.>.0X0X0XJ S `.+X;X:XBX6X4X5X6XlXkXrX=XlXyX",
"3X%X4XtXzX:X6X<.3.N > 0.D 7.w.2XZ >.Z V < > Z l X.9.qXqXwXwXT.h x wXwXqXqX!.0XR.X 5 5 D $.V V S `.oXoX=X*XpX%X3X8X6XlXkXoXOX>X7X",
"oXaXtX%XhXiX=XoX|.2.;.<.2.5.5.2.3.3.3.3.<.2.-.<.3.2.2.2.|.5.,.3.3.2.3.5.3.4.].2.[.2.2.5..X5.2.=X4XoXkXkXoX{.4XlX6X@X;X%X X6XBXpX",
"4XlX6X&XzXhX3XyX=X=XXX+X6XkXOX3X3X{.oX:X=XoX2.3X3X6.3.|.gX7XXX%XtX-X=X6X+X%X6X4X#X+X=X%XlXiX:XlX|.tXZXkX#X&XcXlX:XsXpX%X+XpX7X=X",
"6XkX3XtXCXgXoXOX7X;X%X=XlXiX}.yXcX6X7XBXkX}..X=X=XXX=XzXlX:X=X=X7X6X4X%XpXkX%X6X%XaXbX6XkXlXpX6X XxXZXiX$XlXbX6X=XBXkX+X7XkX%X+X",
"=X=XoX4XkXtX}.&XbXVXBX6X%X[.#X6X=XOX;X:X}.XXjXBXBX7XaXlX6X{.6XBXbXOX[.uXBX-X#XvXeX3XtX%X-X6X=X*XeXuX7X=XiXzX6X;XtX*X;X6X6XiXkXoX",
"kXyX%X[.[.+XoXuXVXlXsX1X].%XBXvXoX=XjXeXXXpXmXmXkX%X=X6XoXoXyXkXfX<XyXxX6X|.oXrX1X#X4X X4X&X%XBXZX=XXX%X4X4X6XkXsX%X7XlX%XaXBX%X"
};
