/* XPM */
static char *_deb4560427b40aee5c1395e21869a4fsfmVoRc786qwts7b[] = {
/* columns rows colors chars-per-pixel */
"64 64 168 2 ",
"   c black",
".  c #09080F",
"X  c #100D19",
"o  c #12111C",
"O  c #170F20",
"+  c #1A0E25",
"@  c #151020",
"#  c #1A1225",
"$  c #1D152A",
"%  c #1C1829",
"&  c #21192E",
"*  c #220D33",
"=  c #241733",
"-  c #251B34",
";  c #251739",
":  c #2B153F",
">  c #291C3B",
",  c #05362F",
"<  c #252525",
"1  c #2C213C",
"2  c gray20",
"3  c #2C1343",
"4  c #2E1E43",
"5  c #341B47",
"6  c #331648",
"7  c #351C4C",
"8  c #381B4A",
"9  c #361A51",
"0  c #3A1D53",
"q  c #3E1E59",
"w  c #2F2244",
"e  c #312246",
"r  c #36254B",
"t  c #3E2053",
"y  c #3F215B",
"u  c #421E5E",
"i  c #432357",
"p  c #43235D",
"a  c #462562",
"s  c #4B2764",
"d  c #472865",
"f  c #462669",
"g  c #492669",
"h  c #4D2A6D",
"j  c #4E2972",
"k  c #512975",
"l  c #552C7A",
"z  c #5D2E7E",
"x  c #543178",
"c  c #63317F",
"v  c #494949",
"b  c #6D6D6D",
"n  c #727272",
"m  c #777978",
"M  c #208071",
"N  c #5C2F82",
"B  c #5D3285",
"V  c #682F8C",
"C  c #653485",
"Z  c #683587",
"A  c #663A85",
"S  c #6A3887",
"D  c #66348B",
"F  c #6A358D",
"G  c #67388B",
"H  c #6B398D",
"J  c #663592",
"K  c #6C3693",
"L  c #6D3994",
"P  c #663799",
"I  c #6E369A",
"U  c #6E399A",
"Y  c #703796",
"T  c #713B95",
"R  c #71379C",
"E  c #733B9C",
"W  c #783E9E",
"Q  c #7337A4",
"!  c #753DA3",
"~  c #793EA4",
"^  c #763CAA",
"/  c #7A3EAB",
"(  c #7D3FB1",
")  c #7F3FB8",
"_  c #6A4884",
"`  c #6B418F",
"'  c #6F4395",
"]  c #734096",
"[  c #75419D",
"{  c #78419F",
"}  c #754F9C",
"|  c #7641A3",
" . c #7A42A5",
".. c #7B4FA1",
"X. c #7642AA",
"o. c #7C42AC",
"O. c #7F4AAD",
"+. c #7E43B2",
"@. c #7E4AB1",
"#. c #9E2CB6",
"$. c #A025B9",
"%. c #8145AE",
"&. c #8249AE",
"*. c #8245B4",
"=. c #8349B5",
"-. c #884BB7",
";. c #8445BA",
":. c #8846BE",
">. c #854ABB",
",. c #884AB9",
"<. c #894DBA",
"1. c #894BBD",
"2. c #894CBD",
"3. c #8650B6",
"4. c #8750BC",
"5. c #8C53BF",
"6. c #8B54BF",
"7. c #8545C1",
"8. c #8A46C3",
"9. c #874AC1",
"0. c #8B4BC3",
"q. c #8A4DC2",
"w. c #8C4CC1",
"e. c #8C4BC6",
"r. c #8B4CC4",
"t. c #8A4DC5",
"y. c #8D4EC5",
"u. c #8E4AC8",
"i. c #8E4DCB",
"p. c #8E4ECA",
"a. c #914DC5",
"s. c #924DCC",
"d. c #8C51C2",
"f. c #8B51C4",
"g. c #8D51C4",
"h. c #8E51C9",
"j. c #9153C6",
"k. c #9352CA",
"l. c #9252CC",
"z. c #9151CE",
"x. c #9355CE",
"c. c #9955CE",
"v. c #9558CD",
"b. c #8E4DD3",
"n. c #9047D0",
"m. c #934DD3",
"M. c #944ED2",
"N. c #984DD6",
"B. c #954DD9",
"V. c #9A4FDB",
"C. c #8F51D1",
"Z. c #9252D1",
"A. c #9551D1",
"S. c #9453D3",
"D. c #9654D3",
"F. c #9950D7",
"G. c #9953D7",
"H. c #9854D6",
"J. c #9758D2",
"K. c #995AD5",
"L. c #9653DB",
"P. c #9953DB",
"I. c #9A59DC",
"U. c #9653E0",
"Y. c #9A53E0",
"T. c #9E5AE1",
"R. c #28CEB4",
"E. c #F5F5F5",
/* pixels */
"E >.m.y. .-./ %.L ! A.A.E E M.M.o.2.r.! d.>.T ! ! ! =.o.E u.M.o.K ,.H.,./ r.E ~ >. .T C L A.*.W k.>.j.*. .W D.<.T j.<.T 5.6.~ >.",
"L 2.z.<.L L U L H g.A.,.L 1.G.*.L E o.*.W E  .=.U K E L E 0.;.F K e.s.o.o.>.K o. .T 3.!  .r.{ ! 0.+.=.g.o.[ x.o.C W o.*.*. .! ~ ",
"%.W E E L >.p.E D E E o.;.G.*.C T *.k.-.T | o.x.>.f.=.E F K K =.0.u.! C L E  .%.W F T p.;.K [ D.z.E I ~ E / 0.*.! E L r.o.E 2.| ",
"=.o.-.%.! D.;.T ;.;.T =.G.s.W K >.s.c.o. .k.r. .o.-.E o./ K *.s.m.>.F [ =.;.,. .~ *.~ z.;.F L =.! ^ z.*.>.z.o.I >.z.[ +.>.o.o.G ",
"! / 2. .T o.H G r.p.L L / E G *.h.Q >.E U ! o.L U K W u.;.K o.+.+.L c <.I.z.~ L y.H. .U o. .F C F 0.p.E =.Z. .K ;.o.| o.[ W ,.1.",
"o.>.W C  . .G K =.o.T H o.E F o.o.T =.=.o.E ~ o.g.| 0.m.;.J E K K E E E o.o.E L +.p.K L e.-.| o.,.+.y.>.~ ! W h.>.F <.-.L +.8.p.",
";.o.W o.u.=.L y.:. .~ D k.x./ >.o.T T ;. .~ A.Z.1.E e.M./ Q s.*.W 0.p.! o.=.=.x.*.! L >.D.o.K p.M.^ o.>.! U ! 2.;.W { o.*.8.1.U ",
">.^ W Z.m.o.E G.s.! / ;.s.*.K o.W K  .z.E K *.x.o.J ;.y.R ;.V.0.W m.s.K W  . .<.! ! K o.r.E o.s.m.s.R F ;.y.+.F o.g.L %.1.>.*.F ",
"r.d.E +.I K W s.1.W ;.B.8.R *.o.! *.=.A.~  .*. .E | k.o.E s.V.*.I 8.s. .=.x.W L L >.o.E ! W -.~ :.e.Q ~ G.;.r.=.| >.>.*.! U ! o.",
"r.! T ~ ! / a.1.K U y.m.^ ^ D.r.o.p.=./ +.A.Z.| -.,./ ~ / m.s./ =.A.*.L ;.;.T -.| r.=.Q -.o.E E I +.;.=.r.~ r.9.K +.7.^ J E >.D.",
"*.L o.o.>.8.G./ U ~ o.W / =.=.E K +.2.J E ;.;.I +.Q K I ~ / E F +.A.~ / s.o.E p.o.o.Q *.D.,.! r.0.1.=.E K W >.+.~ ~ +.>.p.-.E o.",
"K E D.>.E 7.m.! <.g.R o.r./ W  . .o.=.F  .0.I 9.I.~ L q.f.o.=.>.+.o./ 0.=.L o.r.o.! ~ z.y.E +.s.;.W E o.o.! ! +.r.~ E r.x.o.W K ",
" .o.*.o.K *.y.U ! Q ^ m.;.K ~ z.>.U ! E W o.R *.G.;.E =.o.~ Z.I.w.G o.p.K K +.W o.! o.x. .F ;.e.T T f.h.+.o.E +.+.Q ~ ~ ~ W 5. .",
"r.T D o.>. .] K ( ) s.7.^ >.E ! W *.h.-.F ! *.*.s.>.F K ;.*.! / ! H -.;.R e.0.E ;.+.L ! L o.u.+.L 8.m./ ~ M.s.o.o.r.g.T %.y.r.U ",
"E E >.Z.x.| G =.s.n.m.^ ^ x.W L  .o.o. .K o.z.r.+.E D *.I.+.W o.| o.Z.~ ~ G.;.! s.m.o.K o.G.m.W *.L.L.o. .A.s.T E k.<.T  .<.=.=.",
" .;.G.9.I E T  .,.s.:.E >.w.~  .r.L E ;.;.L o.O.G R / >.1.E E E K 8.L./ o.m.! ! s.>.W W A.G.;.L k.G.0.T H ~ Q F %.*.K *.o.F | D.",
"o.^ p.o.L >.r.T G T E ! r.~ E &.*.| k.I.z.K U E F y.m.! G &.p.y.o.r.L.=.=.=.E 2.=.F K *.m.;.K C o. .D C L z.0.! c. .o.K.r.L o.D.",
"~ ;.u.! 5.;.0.r.L %.z.2.K o.%.L L *.=.~ +.+.z.5.E p.L.+.C E A.G.o.T *.! C H *.k.L W r.p.Q D U | F E o.o. .L.s.o.h.o.o.=. .E +.Z.",
" .~ E L [ T / p.;. .,.%.K 1.:.K T %.! U ~  .E ~ ~ p.Z.! ~ +.>.r.' H &.h.@. .k.-.F / A.-.F E y.z.H =.Y.G.~ y.;.! o.o.[ L o.+. .&.",
" .W ~  .C L p.U.h.K L K o.k.o.*.-.T K >.f.E  .o.! >.~ W s.G.~ L C L o.D.r.o.&.L o.=.o.L E y.G.;.L y.L.;.K E K E +.-.K ! x.h.K D ",
"=.o.o.y.-. .+./ T S o.9.o.L K r.>.K &.~ E F L  .^ K D L =.>.E D o.>.+.~ T L G W Z.m. .H E e.z.~ o.G.y.I  .X.E E r./ ! +.Q E E ;.",
"^ ~ W %.-.W T o. .{ / z.+.F +.p.+.E O.} >.>.U +.f.| O.L G L L H <.L.Z.T H [ _ ..Z.f.| ' ! =.~ L 2.<.L W <.+.2.%.*.( z.h./ o.>.o.",
"Z.>.E E E G E p.s.o.! ;.E F r.( ~ o.`  .T.e.;.>.L =.                                    6.| C G | F E =.U +.T.,.! s.r.! *.J.w.K ",
"P.;.>.Z.=.! >.p.G.*.I ^ ( o. .! +.=.E E +.E L K K ~   2 v , v #.v M 2 R.R.R.R.R.R.2 v 2   $ x +.o.! h.p.>.;.D.o.=./ R o.=.o.~ o.",
"o.~ =.;.^ / +.( s.%.! z.I.*.Z o.8.;.>.>.U | +.^ u./ U   v v v v v v 2 , , , , , , 2 2 2   + B G.W ! I.P.>.! ~ U L |  .-.>.E o.! ",
"W h.| L :.m.;.! ! D ~ *.~ ~ %.o.W / y.o.+.r.o.u.V.0.E   2 2 v v                   2 2 v   ; j 8.E -.;.! E K p.h.L E g.! / >.L L ",
" .f.~ ~ u.0.=.L C W p.;.K 9.m.W F +.z.                  2 2 v   b b b b b b b b b   2 v   - j U ! r.E  .o.o.L.8.K o.*./ f.x.+.~ ",
"W  . .+.E E r.o.E r.P.1.K ;.Z.<.<.O.  R.R.R.R., M M M       v   b b b b b b b b b   2 v   - ; B K ^ ;.s.k.>.M.;.E w.+.r.o.o.<. .",
"x.>.o.*.E r.=.W +.r.8.R / p.~ L o.  R., , , , #., M M M   2                         2 2 2   > $ h ^ m.8.o.0.s.*.E h.;.>.~ ~ L E ",
"r.Q >.w.~ k.o.E s.y.W J p.A.E D D   R.n n n , #., M M M   v   v v M M M M M M M M M M v v v   # 0 I w./ K +.o.U | +.! L =.r.~ X.",
";.~ o.o.W o.[ T y.o.V / 0.^ E 5.  R.E.E.E.E.E., #., R.R.M   v   2 2 M R.M R.M R.M R.M R.2 2   = l ~ =.-.>.+.U o.d.E U | h.o.+.r.",
"g.2.G T 5.o.H H E L =.G.>.L r.I.  R.E.E.E.E.E., #., R.R.M   2   2 2 R.R.R.R.R.R.R.R.R.R.2 2   e J o.C W a.w.! >.f.! o.o.4.o.o.K.",
"T >./ E o.=.U o.4.L =.D.W L k.;.  R.n n n n n , #., R.R.M   2   v v $.m $.m $.m $.m $.m v v   1 y o.D L T E K o.o.! =.E K ! K +.",
"E ;.A.o.L E I o.*.K W W C ! / !   R.n n n E.E., #., R.R.M   2   v v m $.m $.m $.m $.m $.v v   = s z =.*.! g.-.L K F / p.b.r.T *.",
"o.E *.K =.A.;.! E 0.0. .T r.9.*.  R.E.E.E.E.E., #., R.R.M   2   2 2 R.R.R.R.R.R.R.R.R.R.2 2   O i ! L.8./ >.o.o.;.o.+.8.m.;.L *.",
"W K E L >.I.z.+.E =.r.o.X.L.A.|   R.E.E.E.E.n , #., R.R.M   v   2 2 M R.M R.M R.M R.M R.2 2   & C E G.+. .o.U r.G.>.~ o.o.K D E ",
"E +.>.K K ! ~ o.T ! o.G L =.~ C [   R.E.n n , #., M M M   v   < < M M M M M M M M M M < <   $ @ 9 U ! K r.z.E  .o.K F =.E o.k.p.",
"| ;.G.>.E +.o.H T h.y.L A E +.| -.  R., , , , #., M M M   2                               & $ d : C K L =.p.o.L E ;.;.*.J >.I.r.",
"! +.y.<. .h.&.T ! G.e.L L r.L.>.o. .  R.R.R.R., M M M       % . # & & $ $ # $ - r - e w w $ j 9 F o.k.o.o.p.o.E +.A.D.Z.=.o.+.U ",
"D.=.I L T ~ E >./ E / E ~ G.>.K K E L                 o % o X = 5 t 0 j g t p h g h a g 8 i g | T 1.G.*.T o.~ o.u.8.R ~  .F K ! ",
"=.| L o.>.+.;.s.=.U p.o.=.s.L o.h.E K 7 e # 4 4 > 7 $ - 7 3 7 q a p k j q q g u g g q 7 + p +.4.K 0.P.=.E o.>.+.u.:.<.*.~ o.%.j.",
" .T W ;.o.K s.m./ / G.*.o.-.U r.r.U U N 7 0 y q d 9 * q f P ! T L o.w.E E p.y.o.*.o.o.g.H | h. .L x.s./ %.=.r.+.+.o.<.=.>.x.~ +.",
"-.E >.A.~ E s.s.Q ;.u.K L ~ =.k.K ! o.I D a p h a 0 6 J +.8.;.K ! E T G -.P.+.Y / E E -.[ &.<.D | z./ Q -.W / 0.E E E F T o.o.>.",
"~ ! / p.*.;.e.Q K p.0.K 2.k.~ ~ E x.+.o.U E E U L z >.8.! -.L o.p.z. .o.k.*.L  .j.W E >.=.W K U Q / / 0.k.E *.s.;.v.O.o.o.o.f.o.",
"*.*. .=.y.*.~ E ! =.;.o.k.;.E E ;.z.E K +.Z.o.~ W ! D.;.Q =.E 1.I.1.E +.;.Z H &. .W w.D.-.G o.s.:.~ *.z.o.F  .! ~ =.F z.k.~ o.L ",
"s.s.! H [ F K >.=.K ;.k.*.K +./ ;.>. .o.+.o.R 8./ ~ +.Q o.E o.;.( W E / Q E %.! C ~ ;.T  .T *.L.8.W >.;.K  .o.E L ! U <.;.! E 5.",
"A.G.+.C C o.e.m.o.! s.~ G K ;.y.*.~ L >.Z.>.*.A./ ^ ! 1.<.J =.n.+.C E =.p.k.o.1.a.o. .W g.=.o.G.=.L =.z.! h.P.o. .D.r.K >.K.~ +.",
"o.,.o.W *.m.G.0.T ~ A.-.G / s.2.E T E r.>.W ~  .*.z.8.0.E K u.V.>.! =.>.r.*.K s.P.=.L o.+. .E ;.| [ +.D.~ -.1.E +.y.%.T =.y.E *.",
"-.T L 1.G.m.*.E C T =.g.U e.0.W Z o.y.Q E o.F T  .o.~ F F 8.V.*.W ,.2.o.! K K f.<.L ! 1.>.T  .L L y.s.*.L Y Y o.>.! K L o.o. .h.",
"g.] E o.0.*.L G W F G E U >.Q E K ;.A.W ~ r.Q g.*.L L H =.I.p.T G T T E =.,.K W K Q k.w.W E k.f.o.=.G.I o.k.~ z.p.K / ;.=. . .L ",
"H C T ~ / [ Z *.s.W L ! +.*.o.r.r.! o.T H =.z.d. .&. .L <.f.E G =.*.T <.f.;.>.! =.s.s. .L o.r.+.E &.>.~ k.c. .r.-.T 0.x.&.E >. .",
"o.o.W o.>.L W B.m.~ =.m.n.o.E o.=.L ~ *.W E o.H T E *.o.T H T *.P.G.! [ | Q %.U d.>.L L k.f.E  .a.-.G ~ e./ E o.H T y.*.~ %.h.&.",
";.z.1.o.w.T +.P.;.K o.B.n.~ K E K E p.A.>.F F E =.~ *.L.0.L o.p.M.:.E H F E ! L U L T T h.=.K -.x.o.D o.*.R 1.>.T E E ~ ~ / +.L ",
"! o.>.~ =.L =.M.! D ! =.o.L 1.p.! o.s.,.K E 2.w.K.~ / L.r.H L o.! G K r.a.a.*.L ! w.2.! o.z.o.[  .=.o.r.2.K *.+.o.+.B o.W *.2.E ",
"2.W -.o.&.E 8.8.R =.>.~ L E s.s.~  .%.H E ~ +.k.*.L ! +.K | o.U L ! ! p.m.8./ | =.>./ o.o.=.W H o.b.u.8.+.! W o.p.y.U f.o.o.z.Q ",
"=.E E L L o.>.W  .G.G.k.! ~ s.M.o.F Z T y.*.! +.U F +.>.L r.J. .o.P.*.! ! E o.y.%.L o.D.>.! o.*./ b.p.Q E =.E o.c.o. .y.+.F ~ o.",
"/ >.E %.e.*.K F W M.m.:.o. .y.:.E W / 0.=.! :.y.;.+.p.r.E z.0.~ 1.P.9.I ;.>.! *.5. .o.+.W <.I.;.E p.p.>.o.>.=.E o.E 2.*.o.! ;.*.",
"*.>.K 8.N.*. .2.^ u.;.R >.o.U E L W s.8.E =.:.s.o.=.s.o.K y.o. .y.p.! *.L.+. .c.-.U >.*.K o.G.) / p./ ^ / D.o. .o.o.u.y.&.! p.=.",
"| E  .*.s./ o.2.o.h.o.E >.~ o.r.=.| z.*.E >.Q +.~ ! *.L L *.L E 0.h.! *.D.W K / ~ ! o.Q o.>./ 7.;.L Y ~ Q 1.W | @.o.p.r.L K ( +.",
"L >.*.W u.;.! =.+.C.*.o.o.;.>./ E T o.E +.r.=.>.>.~ O.T 0.*.D =.s.+.I ~ ! E y.k.*.o.=.! p.;.Q G. .L 0.y.L D  .p.o.Y ^ E H o.D.>.",
" .p.o.W s.8.| =.~ =.~  .0.Z.! +.>.U ! ;.p.~ K >.>.K F o.m.8.~ / 1.*.o.>./ / >.=.! o.+.~ s.;./ p.G *.P.s.E W h.p./ ,.1.E U :.+.~ ",
"o.r.| *.P.8.L K o.^ E ! h.;.F =.h.o.+.Z.w.F J ! ~ K ~ s.p./ ! ! +.o. .W 1.w.E o.E >.x.o.y.e.1.o.H g.P.*.R e.x.o.! Z.y.U +.y.E U ",
"! ! L  .r.*.F W x.G.Z. .E D T o.! I ! / F K 9.A.C.+.;.p.o.D o.D.x.K Z -.D.~ T k.%.| *.E ~ o.! Q %.-.+.! *.s.o.^ *.Q ^ o./ ;.y.L ",
"<.=.E Z G U L -.G.p.2.[ C T D.z.L ! 9.%.K >.m.m.0.E ! o.L L =.e.;.K *.f.o.G L &.[ T  .H  .W E A.H.~ J E  . .o.y.,.E +.p.E >.D.E "
};
