/* XPM */
static char *d229852831e14ef8b8ea613e1216784bQ0n1sT7XLulGziXc[] = {
/* columns rows colors chars-per-pixel */
"64 64 15 1 ",
"  c None",
". c black",
"X c #05362F",
"o c #252525",
"O c gray20",
"+ c #494949",
"@ c #6D6D6D",
"# c #727272",
"$ c #777978",
"% c #208071",
"& c #9E2CB6",
"* c #A025B9",
"= c #28CEB4",
"- c #F4F4F4",
"; c gray96",
/* pixels */
"                                                                ",
"                                                                ",
"                                                                ",
"                                                                ",
"                                                                ",
"                                                                ",
"                                                                ",
"                                                                ",
"                                                                ",
"                                                                ",
"                                                                ",
"                                                                ",
"                                                                ",
"                                                                ",
"                                                                ",
"                                                                ",
"                                                                ",
"                                                                ",
"                                                                ",
"                                                                ",
"                                                                ",
"                                                                ",
"                          ..................                    ",
"                          .O+X+*+%O======O+O.                   ",
"                           .++++++OXXXXXXOOO.                   ",
"                           .OO++.........OO+.                   ",
"                   .........OO+.@@@@@@@@@.O+.                   ",
"                  .====X%%%...+.@@@@@@@@@.O+.                   ",
"                 .=XXXX&X%%%.O............OOO.                  ",
"                 .=###X&X%%%.+.++%%%%%%%%%%+++.                 ",
"                .=-----X&X==%.+.OO%=%=%=%=%=OO.                 ",
"                .=-----X&X==%.O.OO==========OO.                 ",
"                .=#####X&X==%.O.++*$*$*$*$*$++.                 ",
"                .=###--X&X==%.O.++$*$*$*$*$*++.                 ",
"                .=-----X&X==%.O.OO==========OO.                 ",
"                .=----#X&X==%.+.OO%=%=%=%=%=OO.                 ",
"                 .=-##X&X%%%.+.oo%%%%%%%%%%oo.                  ",
"                 .=XXXX&X%%%.O...............                   ",
"                  .====X%%%...                                  ",
"                   ........                                     ",
"                                                                ",
"                                                                ",
"                                                                ",
"                                                                ",
"                                                                ",
"                                                                ",
"                                                                ",
"                                                                ",
"                                                                ",
"                                                                ",
"                                                                ",
"                                                                ",
"                                                                ",
"                                                                ",
"                                                                ",
"                                                                ",
"                                                                ",
"                                                                ",
"                                                                ",
"                                                                ",
"                                                                ",
"                                                                ",
"                                                                ",
"                                                                "
};
