/* XPM */
static char *_1aa0261c01c413ddc83cae6b43170a3xRXcmlkFAafNGEsd[] = {
/* columns rows colors chars-per-pixel */
"64 64 33 1 ",
"  c None",
". c #1F232C",
"X c #20242D",
"o c #20252D",
"O c #21252D",
"+ c #22252D",
"@ c #202630",
"# c #233539",
"$ c #233639",
"% c #593229",
"& c #672E4C",
"* c #682E4C",
"= c #A53335",
"- c #E6B74E",
"; c #E4A27F",
": c #E4A37F",
"> c #E6A37F",
", c #E6A47F",
"< c #E7A47F",
"1 c #1C5C8E",
"2 c #1F5D8E",
"3 c #EADAC1",
"4 c #EBDBC2",
"5 c #ECDBC2",
"6 c #ECDCC2",
"7 c #EDDCC2",
"8 c #EDDCC3",
"9 c #EDDDC3",
"0 c #EEDDC3",
"q c #EFDDC4",
"w c #EEDEC4",
"e c #EFDEC4",
"r c #F0DFC5",
/* pixels */
"                                                                ",
"                                                                ",
"                          XXXXXXXXXXXX                          ",
"                    XXXXXXXXXXXXXXXXXXXXXX                      ",
"                XXXXXXXXXX============XXXXXX                    ",
"                XXXXXXXXXX============XXXXXX                    ",
"              XXXXXX%%====================XXXX                  ",
"            XXXX====%%====================XXXX                  ",
"            XXXX======%%================%%%%XXXX                ",
"          XXXX========%%==============%%%%%%XXXX                ",
"         XXX==========%%==============%%======XXX               ",
"         XXX==========%%============&&%%======XXX               ",
"         XXX========%%==============&&%%======XXX               ",
"         XXX======%%%%====&&&&&&&&&&rrrr**====XXX               ",
"         XXX====%%%%&&&&&&&&&&&&&&&&rrrr&*==&&XXX               ",
"            XXXX%%==&&&&&&rrrrrrrrrrrrrr&*==&&XXX               ",
"            XXXX77&&rrrrrXXXrrrrrrXXXrrrrr&&e7XXX               ",
"            XXXX7r&&rrrrrXXXrrrrrrXXXrrrrr&&r7XXX               ",
"            XXXX7r&&rrrrrXXXrrrrrrXXXrrrrr&&r7XXX               ",
"           XXX%%1111rrrrrrrrrrrrrrrrrrrrrr%%%%XXX               ",
"           XXX%%1111<<<<rrrrrrrrrrrrrr<<<<%%%%XXX               ",
"           XXX%%%%%%<<<<rrrrrrrrrrrrrr<<<<%%%%XXX               ",
"           XXX%%%%%%%%11<<<<<<<<<<<<<>11%%%%11XXXXXX            ",
"         XXX11111%%%%%11<<<<<<<<<<<<>>11%%%%111111XXXX          ",
"       XXXX111111%%%%%1111111111----1111%%%%111111XXXXX         ",
"       XXX1111111%%%111111111111----1111%%%%%%111111XXXX        ",
"     XXXX11111111%%%111111111111--111111%%%%%%11111111XXX       ",
"     XXXX111111%%%%%111111111111--111111%%%%%%11111111XXX       ",
"     XXXX111111%%%%%111111111111--111111%%%%%%11111111XXX       ",
"   XXXX11111111%%%%%111111111111--11111111%%%%111111111XXXX     ",
"   XXXX11111111%%%%%111111111111--11111111%%%%111111111XXXX     ",
"     XXXX111111%%%%%111111111111--11111111%%%%1111111XXXX       ",
"     XXXX<<1111%%%%%111111111111--11111111%%%%XX<<<<<XXXX       ",
"     XXXX<<1111%%%%%111111111111--11111111%%%%XX<<<<<XXXX       ",
"     XXXXrr<<<<%%%%%111111111111--11111111%%%%XXrrrrrXXXX       ",
"     XXXXrr<<<<%%%%%111111111111--11111111%%%%%%rrrrrXXXX       ",
"     XXXXrrrrrr%%%%%111111111111--11111111%%%%%%rrrrrXXXX       ",
"   XXXXrrrrrrrr%%%%%111111111111--11111111%%%%%%rrrrrXXXX       ",
"   XXXXrrrrrrrrX@111111111111111--1111111111XXrrrrrrrXXXX       ",
"   XXXXrrrrrrrr.@111111111111111--1111111111XXrrrrrrrrrXXXX     ",
"   XXXXrrrrrrrrX@111111111111111--111111111111rrrrrrrrrXXXX     ",
"   XXXXrrrrrrrrX@111111111111111--11111111----XrrrrrrrXXX       ",
"     XXXXrrrXXX--111111111111111--11111111----Xrrere7eXX        ",
"     XXXXeeeXXX--111111111111111--------------XXXee3XXXX        ",
"      XXXXXXXXX-----------------------####XXXXXXXXXXXX          ",
"      XXXXXXXXXXX---------------##########XXXXXXXXXXXX          ",
"        XXXXXXXXX---------------##########XXXX   XXX            ",
"              XXXXXX##########XXXX########XXXX                  ",
"              XXXXXX######<<<<XXXX<<<<<<<<XXXX                  ",
"                XXXX######<<<<XXXX<<<<<<<<XXXX                  ",
"                XXXX##575553##XXXX##e33377XXXX                  ",
"                  XX##555555##XXXX##555555XXXX                  ",
"                  XXXX########XXXX########XXXX                  ",
"                  XXXX########XXXX########XXXX                  ",
"                  XXXX########XXXX########XXXX                  ",
"                  XXXX########XXXXXX######XX                    ",
"                  XXXX########XXXXXXXXXXXXXX                    ",
"                    XXXXXXXXXXXX    XXXXXX                      ",
"                    XXXXXXXXXXXX    XXXXXX                      ",
"                      XXXXXXXX                                  ",
"                      XXXXXXXX                                  ",
"                                                                ",
"                                                                ",
"                                                                "
};
