/* XPM */
static char *_ec4273428684ad6aff44babdc2198c6WDAl4l2qJlVclqwl[] = {
/* columns rows colors chars-per-pixel */
"64 64 152 2 ",
"   c #160721",
".  c #190925",
"X  c #1E0C2D",
"o  c #210D2F",
"O  c #210D32",
"+  c #240D38",
"@  c #280F3F",
"#  c #271135",
"$  c #27103C",
"%  c #2A123C",
"&  c #1F232C",
"*  c #20242D",
"=  c #202630",
"-  c #233539",
";  c #593229",
":  c #2E1443",
">  c #2F1649",
",  c #311644",
"<  c #36194D",
"1  c #371C51",
"2  c #3A1B53",
"3  c #3E1E59",
"4  c #3F2058",
"5  c #401C53",
"6  c #411E5A",
"7  c #42215D",
"8  c #672E4C",
"9  c #682E4C",
"0  c #452263",
"q  c #492466",
"w  c #462368",
"e  c #4C256C",
"r  c #4B296B",
"t  c #4E2771",
"y  c #4F2972",
"u  c #532B75",
"i  c #562C7A",
"p  c #592D7D",
"a  c #5C307E",
"s  c #A53335",
"d  c #E6B74E",
"f  c #E7A47F",
"g  c #5B2E81",
"h  c #5D2E88",
"j  c #5D3182",
"k  c #653384",
"l  c #683587",
"z  c #6A3887",
"x  c #65348B",
"c  c #6A358C",
"v  c #67388D",
"b  c #6B398D",
"n  c #663490",
"m  c #6C3693",
"M  c #6D3994",
"N  c #6E379A",
"B  c #6F399A",
"V  c #703796",
"C  c #713B95",
"Z  c #71379C",
"A  c #723B9C",
"S  c #783D9E",
"D  c #753DA3",
"F  c #793EA4",
"G  c #763DA9",
"H  c #7A3EAA",
"J  c #7B3FB1",
"K  c #1C5C8E",
"L  c #6E4094",
"P  c #734096",
"I  c #714A94",
"U  c #75419D",
"Y  c #78409F",
"T  c #7641A3",
"R  c #7A42A5",
"E  c #7640AA",
"W  c #7C42AC",
"Q  c #7E4AAB",
"!  c #7E43B2",
"~  c #7E49B1",
"^  c #8145AE",
"/  c #8349AE",
"(  c #8245B4",
")  c #8349B5",
"_  c #8849B7",
"`  c #8446BA",
"'  c #8947BD",
"]  c #854ABB",
"[  c #8848BA",
"{  c #894CB9",
"}  c #884DBA",
"|  c #894BBD",
" . c #8A4DBD",
".. c #8451B3",
"X. c #8A51BE",
"o. c #8C53BF",
"O. c #8B54BF",
"+. c #8646C0",
"@. c #8A47C4",
"#. c #864BC1",
"$. c #8A4BC2",
"%. c #8C4CC1",
"&. c #8A4AC5",
"*. c #8B4CC4",
"=. c #8D4EC6",
"-. c #8E49C8",
";. c #8A4DC9",
":. c #8E4DC8",
">. c #8E4CCA",
",. c #924EC5",
"<. c #924DCC",
"1. c #904ECD",
"2. c #8C50C2",
"3. c #8D52C2",
"4. c #8B51C4",
"5. c #8D51C4",
"6. c #8D51C8",
"7. c #8E51CA",
"8. c #9053C5",
"9. c #9350C8",
"0. c #9155C9",
"q. c #9353CC",
"w. c #9151CF",
"e. c #9354CD",
"r. c #9955CD",
"t. c #9558CD",
"y. c #8E4DD3",
"u. c #9047D0",
"i. c #904DD1",
"p. c #934DD2",
"a. c #944FD1",
"s. c #984DD6",
"d. c #954DD9",
"f. c #8F50D0",
"g. c #9253D1",
"h. c #9450D1",
"j. c #9654D3",
"k. c #9656D3",
"l. c #9553D4",
"z. c #9950D7",
"x. c #9953D6",
"c. c #9955D6",
"v. c #9859D5",
"b. c #9652DA",
"n. c #9A54DB",
"m. c #9A5ADA",
"M. c #9653E0",
"N. c #9A53E0",
"B. c #9A58E0",
"V. c #A05CE1",
"C. c #EDDCC3",
"Z. c #F0DFC5",
/* pixels */
"L ] i.=.R _ H ^ M D h.h.A V a.a.W  .*.D 2.] C D D D ) W A :.a.W m [ c.[ H *.A F ] R C k M h.( S 8.] 0.) R D j.] C 8.{ C o.O.D ] ",
"M  .w.{ M M B M b 2.h.[ M | x.( M A W ( S V R ) B m A M V $.` c m &.<.W W ] m W R C ..D W %.R F $.! _ 2.W F j.! k S W ) ( R D D ",
"^ S A A M ] :.A x A A W ` x.( k C ( 9._ C T W e.] 4.* * * * * * * * * * * * R ^ S c C :.` m U j.w.A N D A H $.( D V M *.W A  .T ",
") W _ ^ D j.` C ` ` C ) x.<.S m ] <.r.W * * * * * * & * * * * * * * * * * * * * * * D 7.` c M ) D G w.( ] w.W N ] 0.U ! ] W W v ",
"D H  .R C W b v *.:.M M H A v ( * * * * * * * * * * s s s s s s s s s s s s * * * * * * W T c k c $.:.A ) g.R m ` W T W U S [  .",
"W ] S l R R v m ) W L b R A c W & & * * * * * * * * s s s s s s s s s s s s * * * * * * ;._ T W [ ! =.] D D S 7.] c { _ M ! &.7.",
"` W S W :.) M =.' R I x 9.e.* * & * * * ; ; s s s s s s s s s s s s s s s s s s s s * * * * m :.a.G W ] D B D  .` S Y W ( &.| B ",
"] G S g.i.W V x.<.D H ` * * * * s s s s ; ; s s s s s s s s s s s s s s s s s s s s * * * * D =.i.9.Z c ` =.! c W 2.M ^ | ] ` c ",
"*.2.V ! N m S <.| S ` d.* * * * s s s s s s ; ; s s s s s s s s s s s s s s s s ; ; ; ; * * * * ' ] D D x.` *.) T ] ] ( D B D W ",
"*.D C F D H ,.| m B * * * * s s s s s s s s ; ; s s s s s s s s s s s s s s ; ; ; ; ; ; * * * * N ! ` ) *.D *.#.m ! +.G n A ] j.",
"( M W W ] &.x.H B * * * s s s s s s s s s s ; ; s s s s s s s s s s s s s s ; ; s s s s s s * * * { ) A m S ] ! D D ! ] :.) V W ",
"m V j.] V +.i.D { * * * s s s s s s s s s s ; ; s s s s s s s s s s s s 8 8 ; ; s s s s s s * * * S A W W D D ! *.D A *.w.W S m ",
"R W ` W m ( =.B D * * * s s s s s s s s ; ; s s s s s s s s s s s s s s 8 8 ; ; s s s s s s * * * M 2.7.! W V ! ! D D F F S X.R ",
"*.C x W ] R P m ! * * * s s s s s s ; ; ; ; s s s s 8 8 8 8 8 8 8 8 8 8 Z.Z.Z.Z.9 9 s s s s * * * ] 7.H D a.<.W W *.2.C ^ =.*.B ",
"A A ] g.e.T z ) <.* * * s s s s ; ; ; ; 8 8 8 8 8 8 8 8 8 8 8 8 8 8 8 8 Z.Z.Z.Z.8 9 s s 8 8 * * * b.j.W R h.<.C A 9.{ C R { ` ) ",
"R ` x.#.N A C R [ <.[ A * * * * ; ; s s 8 8 8 8 8 8 Z.Z.Z.Z.Z.Z.Z.Z.Z.Z.Z.Z.Z.Z.8 9 s s 8 8 * * * x. .C b F D c ^ ( m ( W c R j.",
"W G :.W M ] *.C v C A D * * * * C.C.8 8 Z.Z.Z.Z.Z.* * * Z.Z.Z.Z.Z.Z.* * * Z.Z.Z.Z.Z.8 8 C.C.* * * R x k M w.#.D r.R W m.*.M W j.",
"F ` :.D X.` $.*.M ^ w. .* * * * C.Z.8 8 Z.Z.Z.Z.Z.* * * Z.Z.Z.Z.Z.Z.* * * Z.Z.Z.Z.Z.8 8 Z.C.* * * V W W R b.:.W 7.W W ( R A ! g.",
"R D A M U C H :.` R [ ^ * * * * C.Z.8 8 Z.Z.Z.Z.Z.* * * Z.Z.Z.Z.Z.Z.* * * Z.Z.Z.Z.Z.8 8 Z.C.* * * ) N.x.D =.` D W W U M W ! R / ",
"R S F R l M :.M.w.m M * * * ; ; K K K K Z.Z.Z.Z.Z.Z.Z.Z.Z.Z.Z.Z.Z.Z.Z.Z.Z.Z.Z.Z.Z.Z.; ; ; ; * * * *.b.` m A m V ! _ m D e.7.m x ",
") W W =._ R ! H V z W * * * ; ; K K K K f f f f Z.Z.Z.Z.Z.Z.Z.Z.Z.Z.Z.Z.Z.Z.f f f f ; ; ; ; * * * x.=.N R W A A *.H D ! D A A ` ",
"G D S ^ _ S C W R Y H * * * ; ; ; ; ; ; f f f f Z.Z.Z.Z.Z.Z.Z.Z.Z.Z.Z.Z.Z.Z.f f f f ; ; ; ; * * * { M S { !  .^ ( J w.7.H W ] W ",
"g.] V V A v V :.<.W D * * * ; ; ; ; ; ; ; ; K K f f f f f f f f f f f f f f K K ; ; ; ; K K * * * * * * B ! V.[ D <.*.D ( j.%.m ",
"n.` ] g.) D ] :.x.* * * K K K K K ; ; ; ; ; K K f f f f f f f f f f f f f f K K ; ; ; ; K K K K K K * * * * j.W ) H Z W ) W F W ",
"W D ) ] G W ! * * * * K K K K K K ; ; ; ; ; K K K K K K K K K K d d d d K K K K ; ; ; ; K K K K K K * * * * * B M T R { { A W D ",
"S 7.T M ' i.` * * * K K K K K K K ; ; ; K K K K K K K K K K K K d d d d K K K K ; ; ; ; ; ; K K K K K K * * * * M A 2.D H { M M ",
"R 8.F D :.* * * * K K K K K K K K ; ; ; K K K K K K K K K K K K d d K K K K K K ; ; ; ; ; ; K K K K K K K K * * * W W H 5.e.! D ",
"S R R Q A * * * * K K K K K K ; ; ; ; ; K K K K K K K K K K K K d d K K K K K K ; ; ; ; ; ; K K K K K K K K * * * %.W *.W W { R ",
"e.] W ( A * * * * K K K K K K ; ; ; ; ; K K K K K K K K K K K K d d K K K K K K ; ; ; ; ; ; K K K K K K K K * * * 7.) ] D F M A ",
"*.D ] * * * * K K K K K K K K ; ; ; ; ; K K K K K K K K K K K K d d K K K K K K K K ; ; ; ; K K K K K K K K K * * * * M ) *.D E ",
"` D W * * * * K K K K K K K K ; ; ; ; ; K K K K K K K K K K K K d d K K K K K K K K ; ; ; ; K K K K K K K K K * * * * T 7.W ! *.",
"2. .v C X.* * * * K K K K K K ; ; ; ; ; K K K K K K K K K K K K d d K K K K K K K K ; ; ; ; K K K K K K K * * * * D W W X.W W m.",
"C ] H V W * * * * f f K K K K ; ; ; ; ; K K K K K K K K K K K K d d K K K K K K K K ; ; ; ; * * f f f f f * * * * D ) V m D m ! ",
"V ` l.W M * * * * f f K K K K ; ; ; ; ; K K K K K K K K K K K K d d K K K K K K K K ; ; ; ; * * f f f f f * * * * c F :.y.*.C ( ",
"W A ` M ) * * * * Z.Z.f f f f ; ; ; ; ; K K K K K K K K K K K K d d K K K K K K K K ; ; ; ; * * Z.Z.Z.Z.Z.* * * * W ! @.d.` M ) ",
"S m V M ] * * * * Z.Z.f f f f ; ; ; ; ; K K K K K K K K K K K K d d K K K K K K K K ; ; ; ; ; ; Z.Z.Z.Z.Z.* * * * ] D W W m x A ",
"A ! ] m c * * * * Z.Z.Z.Z.Z.Z.; ; ; ; ; K K K K K K K K K K K K d d K K K K K K K K ; ; ; ; ; ; Z.Z.Z.Z.Z.* * * * c v ) V W 9.:.",
"T ` l.* & & * Z.Z.Z.Z.Z.Z.Z.Z.; ; ; ; ; K K K K K K K K K K K K d d K K K K K K K K ; ; ; ; ; ; Z.Z.Z.Z.Z.* * * * ` ` ( n ] B.:.",
"D ! *.* & * * Z.Z.Z.Z.Z.Z.Z.Z.* = K K K K K K K K K K K K K K K d d K K K K K K K K K K * * Z.Z.Z.Z.Z.Z.Z.* * * * 7.j.g.) W ! D ",
"j.) M * & & * Z.Z.Z.Z.Z.Z.Z.Z.& = K K K K K K K K K K K K K K K d d K K K K K K K K K K * * Z.Z.Z.Z.Z.Z.Z.Z.Z.* * * * T R c m D ",
") T M * * * * Z.Z.Z.Z.Z.Z.Z.Z.* = K K K K K K K K K K K K K K K d d K K K K K K K K K K K K Z.Z.Z.Z.Z.Z.Z.Z.Z.* * * * ) F W ^ 0.",
"R C S * * * * Z.Z.Z.Z.Z.Z.Z.Z.* = K K K K K K K K K K K K K K K d d K K K K K K K K d d d d * Z.Z.Z.Z.Z.Z.Z.* * * R { ) { e.D ) ",
"_ A Q h.F * * * * Z.Z.Z.* * * d d K K K K K K K K K K K K K K K d d K K K K K K K K d d d d * Z.Z.C.Z.C.C.C.* * A A V c C W ! #.",
"F D H :.( * * * * C.C.C.* * * d d K K K K K K K K K K K K K K K d d d d d d d d d d d d d d * * * C.C.C.* * * * ` t.Q W W W 7.! ",
"( ( R ) =.) * * * * * * * * * d d d d d d d d d d d d d d d d d d d d d d d - - - - * * * * * * * * * * * * R D D ) c 0.9.D W V ",
"<.<.D b U c * * * * * * * * * * * d d d d d d d d d d d d d d d - - - - - - - - - - * * * * * * * * * * * * W A M D B { ` D V 2.",
"h.x.! k l W &.i.* * * * * * * * * d d d d d d d d d d d d d d d - - - - - - - - - - * * * * W x.) * * * U 7.n.W R j.*.m ] v.D ! ",
"W [ W S ( 7.x.%.C F h._ z H * * * * * * - - - - - - - - - - * * * * - - - - - - - - * * * * A _ T U W r.T _ | A ! =.^ C ) =.D ) ",
"_ C M | x.i.` V k C _ 2.L &.* * * * * * - - - - - - f f f f * * * * f f f f f f f f * * * * R M M *.:.` M V V W ] D m M W W R 7.",
"2.P A W $.( M c F c v C B i e m * * * * - - - - - - f f f f * * * * f f f f f f f f * * * * 8.2.W ) x.N W 8.F w.:.m H ` ) R R M ",
"b l C F H U l ( w.S M D ! n e ] * * * * - - C.C.C.C.C.C.- - * * * * - - C.C.C.C.C.C.* * * * *.W A / ] F 9.r.R *._ C %.w./ V ] R ",
"W W S W ] M S d.i.D ) i.u.B i T ~ x * * - - C.C.C.C.C.C.- - * * * * - - C.C.C.C.C.C.* * * * V R ,.) v F &.H V W b C %.( F ^ 7./ ",
"` w.| W %.C ! n.` m W d.u.D e x x u * * * * - - - - - - - - * * * * - - - - - - - - * * * * M ) w.W x W ( Z | ] C A A F F H ! M ",
"D W ] D ) M ` a.D x D ) W x i i i x * * * * - - - - - - - - * * * * - - - - - - - - * * * * T U R ) W *. .m ( ! W ! j W S (  .A ",
" .S _ W / V &.+.Z ) ] D M m p p i A * * * * - - - - - - - - * * * * - - - - - - - - * * * * o % W y.:.&.! D D W :.=.B 5.W W 0.D ",
") V V M M W ] S W x.x.9.D n g p e # * * * * - - - - - - - - * * * * * * - - - - - - * * r 2 % o H y.:.D A ) A W j.W R =.! c D W ",
"H ] V ^ &.( m c S a.i.' A A B t # % * * * * - - - - - - - - * * * * * * * * * * * * * * 7 7 3 : Z :.:.] W ] ) V W V  .( W D ` ( ",
") ] m @.s.( R  .G :.` Z ! A m 3   p 0 e * * * * * * * * * * * * x u 2 a * * * * * * r p g u 0 + H :.H G H j.W R W W :.=./ D :.) ",
"T A R ( <.H W  .W 7.W V ) x C M X 3 < 7 * * * * * * * * * * * * g i 0 7 * * * * * * 0 < 3 r w @ ` M V D D | S T ~ W :.*.M m J ! ",
"M ] ( S -.` D ) ! f.( W W ) E n : . r q 0 r * * * * * * * * u j c x w 0 p k M j i i e e y i : % R M $.=.M x R :.W V G A b W j.] ",
"R :.W S <.&.T ) D ) F R *.g.V A x O O w w < * * * * * * * * p O p e i u t 0 i 2 0 q e 2 i i O < v ( n.<.V S 7.:.H [ | V B $.! D ",
"W *.T ( n.+.M m W G A D 7.` c ! ! e 2 X 2 e e u u q p x h g p q n u q < j e 0 i 6 7 # 2 0 O 2 W b 2.n.` Z &.w.W D g.=.B ! :.A B ",
"D D M R *.( c S w.x.g.W V x C W A x n % o X > 0 t 0 q t 3 : u q i 6 5 u y q u u 4 2 0 # . , m D ^ _ ! D ` <.W G ( D G W W ` =.M ",
"*.) A l z B M ) h.:. .U k A j.r.M D #.A # O $ : : : < < : : : 2 $ % : 1 , % , , # , : . u C A h.c.D n V R R W =.[ V ! :.A ] j.A "
};
