/* XPM */
static char *_8d673aac0714417d5cf055204f70603gUmDxjiH8fY6SkZm[] = {
/* columns rows colors chars-per-pixel */
"64 64 169 2 ",
"   c None",
".  c #1E0600",
"X  c #1D0A02",
"o  c #1F060C",
"O  c #1E0B0E",
"+  c #171205",
"@  c #1A1006",
"#  c #1F021B",
"$  c #1C0A18",
"%  c #1B1711",
"&  c #230B01",
"*  c #2C0D01",
"=  c #25060E",
"-  c #220C0A",
";  c #310E01",
":  c #251205",
">  c #2C1202",
",  c #261907",
"<  c #24150C",
"1  c #29160D",
"2  c #321302",
"3  c #381705",
"4  c #341A03",
"5  c #3A1C03",
"6  c #321709",
"7  c #351909",
"8  c #3B1D0A",
"9  c #210215",
"0  c #2C0516",
"q  c #230D12",
"w  c #22001C",
"e  c #210F1A",
"r  c #221113",
"t  c #2C1813",
"y  c #22111B",
"u  c #25181E",
"i  c #381D13",
"p  c #3E2007",
"a  c #3D220C",
"s  c #3B2114",
"d  c #332118",
"f  c #1E0222",
"g  c #240122",
"h  c #2A0024",
"j  c #220C24",
"k  c #23052A",
"l  c #2D012A",
"z  c #250B2C",
"x  c #310A23",
"c  c #31012D",
"v  c #291721",
"b  c #2D1C24",
"n  c #311E24",
"m  c #270630",
"M  c #2E0433",
"N  c #250A34",
"B  c #2B0C34",
"V  c #240C3C",
"C  c #2B083C",
"Z  c #340333",
"A  c #380537",
"S  c #340A36",
"D  c #370739",
"F  c #3A073C",
"G  c #35093A",
"H  c #3B093D",
"J  c #2A1332",
"K  c #2E1D3A",
"L  c #42250E",
"P  c #442612",
"I  c #472914",
"U  c #492A16",
"Y  c #4C2D19",
"T  c #4E3018",
"R  c #503217",
"E  c #593B1E",
"W  c #440D3F",
"Q  c #533721",
"!  c #5D3E22",
"~  c #63452A",
"^  c #664829",
"/  c #220F43",
"(  c #290A44",
")  c #340C47",
"_  c #3D0A43",
"`  c #350D4A",
"'  c #3C0D4A",
"]  c #2E1544",
"[  c #321C42",
"{  c #351249",
"}  c #3A104E",
"|  c #2D1253",
" . c #341254",
".. c #391050",
"X. c #410C45",
"o. c #430E4A",
"O. c #43114C",
"+. c #4B124E",
"@. c #461453",
"#. c #491555",
"$. c #491857",
"%. c #44175A",
"&. c #4A1759",
"*. c #421A5D",
"=. c #4C1A5D",
"-. c #413659",
";. c #4E1D61",
":. c #521E65",
">. c #521F68",
",. c #462067",
"<. c #492060",
"1. c #522066",
"2. c #54236B",
"3. c #58266F",
"4. c #562672",
"5. c #592672",
"6. c #572874",
"7. c #5A2976",
"8. c #5D2B7B",
"9. c #612D7D",
"0. c #60307F",
"q. c #632D81",
"w. c #653083",
"e. c #693186",
"r. c #6D348D",
"t. c #72368F",
"y. c #6E3691",
"u. c #723591",
"i. c #743995",
"p. c #793996",
"a. c #763998",
"s. c #7C3B9A",
"d. c #7F3EA3",
"f. c #823D9E",
"g. c #843FA2",
"h. c #8A42A4",
"j. c #8C44AA",
"k. c #8F45B3",
"l. c #9245B1",
"z. c #9546B2",
"x. c #9446B4",
"c. c #9846B4",
"v. c #9348B2",
"b. c #9648B6",
"n. c #9848B7",
"m. c #9B4BBA",
"M. c #A04BBF",
"N. c #A14DBF",
"B. c #9F4BC0",
"V. c #9F4CC0",
"C. c #A14EC2",
"Z. c #A24EC5",
"A. c #A34FC8",
"S. c #A450C7",
"D. c #A651C9",
"F. c #A651CC",
"G. c #A952CA",
"H. c #AA52CF",
"J. c #AC53CF",
"K. c #A950C9",
"L. c #AE53D2",
"P. c #AE55D2",
"I. c #AE55D5",
"U. c #B256D6",
"Y. c #B258D7",
"T. c #B357DA",
"R. c #B759DC",
"E. c #B559DA",
"W. c #BC5BE2",
/* pixels */
"                                                                                                                                ",
"                                                                                                                                ",
"                                                                                                                                ",
"                                                                                                                                ",
"                                                                                                                                ",
"                                                                                                                                ",
"                                                    | _ _ _ _ `                                                                 ",
"                                                ` ) %.2.1.2.@.H `                                                               ",
"                                               .#.@.2.8.8.8.>.#.$.                                                              ",
"                                          ' X.#.q.9.8.7.7.7.8.8.8.o.                                                            ",
"                                          ,.f.Z.j.l.u.4.8.8.8.3._ A M l l l D                                                   ",
"                                        ` s.H.R.L.G.c.s.7.=.#.@.A l _ =.=.;.O._                                                 ",
"                                      | @.c.U.T.E.G.n.s.7.o.F A c D 5.a.8.0.1.O.X.                                              ",
"                                    ( F 8.g.M.G.S.m.u.4.8.O.A c Z 1.k.C.7.8.8.4._                                               ",
"                                _ _ Z D 9.8.g.v.q.w.w.4.o.X.A F 4.l.I.Y.V.D.s.4.7.'                                             ",
"                              ..=.=.=.$.O.4.r.u.7.=.&.#._ F c D 7.A.R.U.P.C.p.6.8.2.}                                           ",
"                            *.:.r.r.e.2.Z =.1.;.1._ H _ H c Z @.r.H.L.B.Z.g.e.7.7.8.=.A c                                       ",
"                          %.1.t.z.z.t.;._ Z c l l l F H l l @.y.J.J.c.f.h.9.6.7.7.7.8.2.c                                       ",
"                        ' *.p.P.D.N.p.4.4.o.Z l l l l l l l #.q.e.h.p.9.9.8.8.8.8.w.&.Z l Z                                     ",
"                        =.9.l.E.m.s.w.7.8.O.A h l h h h l l X.=.#.e.w.6.7.8.:.O.O.@.D c #.c C                                   ",
"                      -.8.f.j.b.s.8.7.7.3.O.H H H D D D H Z Z H H ;.7.8.7.4._ l X.D A O.9.O.Z c c                               ",
"                      o.7.f.t.9.9.7.6.2._ _ ;.8.7.7.8.8.8.D l Z Z H :.8.8.H h o.j.w.7.8.7.9.=._ X.c                             ",
"                      o.8.9.9.4.=.7.>.O.X.Z @.r.F.j.e.7.7.3.@.A c Z _ O.H Z Z O.e.8.7.8.8.&.X.X.X.c                             ",
"                    ) o.;.3.8.4._ =.#._ F l @.r.G.f.w.7.8.1.@.H c l D H l c F o.=.7.2.=.=.X._ _ A h                             ",
"                  M Z _ H 1.7.1._ _ _ H l Z &.w.s.9.4.4.4.o.H H c l A H c c F _ F 2.&.H _ _ _ H M k                             ",
"                  k h Z X._ _ _ X.X.F c c 2.8.8.8.9.=._ _ X.F c c l l Z c _ X._ X._ _ X.X.A h k                                 ",
"                    ] c Z H X._ Z A l g c H O.=.8.&.o.X.X.A Z c l l h w w g l A A A A c h w V                                   ",
"                      h l A H A l h N V h l c _ :.X.H F F c l l g g B       m h h h h k / V                                     ",
"                      g l l l l l g     g l c Z H _ A l c l l l k g           g k k g N                                         ",
"                        w w w w w         q 0 Z Z Z Z c l g 9 J                      ._ _ _ _ _ _                               ",
"                                            z = 9 = w g w                       N ..' X.;.;.:.>.1.[                             ",
"                                              X > > - # V                       h F o.:.d.a.e.8.8.S V                           ",
"                                              & 5 5 > e                       w o._ ;.i.W.m.u.6.7.@.l k                         ",
"                                              & 5 L 6 $                       l 8.6.s.m.m.e.8.8.8.O._ G f                       ",
"                                        C ( B x 0 Y P >                     k c O.$.:.9.u.9.:.#.&.o.F Z l N                     ",
"                                        +.+.#.@.' Q Y E > X X               k l h A A H ;.2.@.F _ H Z l Z w                     ",
"                                    ( W j.j.t.7.<.<.L L P L & & X             w g l c Z _ _ _ _ _ Z l l l w                     ",
"                                  ..=.8.q.q.9.8.<.{ { L a P P P P q O O O         N w g Z Z Z Z Z l g g w                       ",
"                                  ` +.;.&.&.&.&.{ { w { w > a T E 8 7 7 >         o N N g h h h h g w g                         ",
"                                  ` F F F H H A h w       j t P Q Y U I p *     . r     N V k w w N K                           ",
"                                  G c Z c _ F l j #           . X s I P P p > X &             w g                               ",
"                                    ] 9 w c h z                   q 8 Y P L P a > -                                             ",
"                                                                    b 7 I U L 8 4 -                                             ",
"                                                                      > I U 8 > > 1                                             ",
"                                                t .               y 6 Y P U 8 * - .                                             ",
"                                                    O       b e y i P I U 8 * & .                                               ",
"                                                      X   s L p 2 P L 8 8 * & -                                                 ",
"                                                      & * E ^ ! U P 8 > * & X                                                   ",
"                                                  y & a ~ Y P I U 2 ; * X .                                                     ",
"                                              y n s a L R L 3 3 3 2 * r                                                         ",
"                                            v & > P U P p 3 2 * ; * & y                                                         ",
"                                          q * 2 2 L P L 4 2 ; ; * & X                                                           ",
"                                        < * > 4 5 5 2 ; ; ; ; * X .                                                             ",
"                                        X ; 2 4 4 2 2 ; ; * & & X & u                                                           ",
"                                      + & : < , 2 ; * * * & X X & @ X X                                                         ",
"                                    % & 6       > 6 t X X &     X     & X                                                       ",
"                                              d         -                                                                       ",
"                                                                                                                                ",
"                                                                                                                                ",
"                                                                                                                                ",
"                                                                                                                                ",
"                                                                                                                                ",
"                                                                                                                                ",
"                                                                                                                                "
};
