/* XPM */
static char *_32f980a16f84949fbeaf1d763a159766Skk5HGly22OeKiM[] = {
/* columns rows colors chars-per-pixel */
"64 64 221 2 ",
"   c #1E0600",
".  c #1D0A02",
"X  c #180608",
"o  c #1E0B0E",
"O  c #181005",
"+  c #1E051A",
"@  c #1B1711",
"#  c #230B01",
"$  c #2C0D02",
"%  c #25060E",
"&  c #220C0A",
"*  c #310E01",
"=  c #2C1202",
"-  c #27150A",
";  c #321302",
":  c #381705",
">  c #341A03",
",  c #3A1C03",
"<  c #331709",
"1  c #351909",
"2  c #3B1D0A",
"3  c #210215",
"4  c #2C0516",
"5  c #230D11",
"6  c #22001C",
"7  c #210F1A",
"8  c #221113",
"9  c #2D1A14",
"0  c #22121B",
"q  c #25181E",
"w  c #381D13",
"e  c #3E2007",
"r  c #3D220C",
"t  c #3B2114",
"y  c #1D0726",
"u  c #240122",
"i  c #2A0024",
"p  c #220C24",
"a  c #23052A",
"s  c #2D012A",
"d  c #230C2C",
"f  c #310A23",
"g  c #31012D",
"h  c #2D1C24",
"j  c #311E24",
"k  c #2E0433",
"l  c #240C34",
"z  c #290A33",
"x  c #240C3C",
"c  c #2B083C",
"v  c #340333",
"b  c #370736",
"n  c #370739",
"m  c #3A073C",
"M  c #35093A",
"N  c #3B093D",
"B  c #2A1636",
"V  c #271139",
"C  c #2A123D",
"Z  c #42250D",
"A  c #442612",
"S  c #472914",
"D  c #492A16",
"F  c #45261A",
"G  c #4C2D19",
"H  c #4E3018",
"J  c #503217",
"K  c #593B1E",
"L  c #440D3F",
"P  c #563921",
"I  c #65472A",
"U  c #220F43",
"Y  c #290A44",
"T  c #340C47",
"R  c #3D0A43",
"E  c #350D4A",
"W  c #3C0D4A",
"Q  c #2D1442",
"!  c #311645",
"~  c #341449",
"^  c #351648",
"/  c #35194C",
"(  c #3A1B4E",
")  c #2D1253",
"_  c #371650",
"`  c #341254",
"'  c #3A1C54",
"]  c #3D1D5A",
"[  c #410C45",
"{  c #430E4A",
"}  c #43114C",
"|  c #4B124E",
" . c #461453",
".. c #491555",
"X. c #451759",
"o. c #4A1759",
"O. c #411D5B",
"+. c #4C1A5D",
"@. c #42215C",
"#. c #413659",
"$. c #451F63",
"%. c #4E1D61",
"&. c #521E65",
"*. c #521F68",
"=. c #452263",
"-. c #492364",
";. c #452368",
":. c #4C266B",
">. c #4E286E",
",. c #522066",
"<. c #54236B",
"1. c #54286F",
"2. c #4D2572",
"3. c #4E2971",
"4. c #552672",
"5. c #592672",
"6. c #542A74",
"7. c #5A2976",
"8. c #562C7A",
"9. c #5C2C7B",
"0. c #5C317E",
"q. c #612D7D",
"w. c #62327F",
"e. c #5C2E83",
"r. c #5E3183",
"t. c #5E3188",
"y. c #622E81",
"u. c #602F8B",
"i. c #643384",
"p. c #693286",
"a. c #673984",
"s. c #65338B",
"d. c #6A358D",
"f. c #66388B",
"g. c #6B398D",
"h. c #72368F",
"j. c #653591",
"k. c #663794",
"l. c #6B3693",
"z. c #6D3994",
"x. c #6E369A",
"c. c #6E399A",
"v. c #713693",
"b. c #713B95",
"n. c #793996",
"m. c #71379C",
"M. c #733B9C",
"N. c #7C3B9B",
"B. c #6F3BA0",
"V. c #7037A3",
"C. c #753DA3",
"Z. c #793EA4",
"A. c #763CAA",
"S. c #7A3EAA",
"D. c #7D3EB3",
"F. c #734096",
"G. c #75419D",
"H. c #78429F",
"J. c #7641A3",
"K. c #7A42A5",
"L. c #7640AA",
"P. c #7C43AC",
"I. c #7F48AC",
"U. c #7E43B2",
"Y. c #7E46B4",
"T. c #823D9E",
"R. c #843FA2",
"E. c #803EB9",
"W. c #8A42A4",
"Q. c #8145AE",
"!. c #8C44AA",
"~. c #8249AE",
"^. c #8245B4",
"/. c #8349B5",
"(. c #8446BA",
"). c #8947BE",
"_. c #854ABB",
"`. c #884AB9",
"'. c #894BBD",
"]. c #894CBD",
"[. c #9346B2",
"{. c #9747B4",
"}. c #9B4BBA",
"|. c #8650B6",
" X c #8A52BE",
".X c #A14CBF",
"XX c #8646C1",
"oX c #8A46C3",
"OX c #874BC1",
"+X c #8B4CC3",
"@X c #8D4DCA",
"#X c #914EC5",
"$X c #9F4CC0",
"%X c #924DCC",
"&X c #8D51C3",
"*X c #8E51C9",
"=X c #9152C6",
"-X c #9253CC",
";X c #9151CE",
":X c #9658CD",
">X c #8F4CD1",
",X c #934DD2",
"<X c #964DD8",
"1X c #8F50D0",
"2X c #9553D3",
"3X c #9953D6",
"4X c #9859D7",
"5X c #9553DA",
"6X c #9A54DB",
"7X c #9959DA",
"8X c #A14EC3",
"9X c #A34FC8",
"0X c #A450C7",
"qX c #A651CA",
"wX c #AA52CC",
"eX c #AE54D2",
"rX c #B257D7",
"tX c #B659DB",
"yX c #9955E0",
"uX c #A05CE1",
"iX c #BC5BE2",
/* pixels */
"M._.,X+XK.`.S.Q.z.C.2X2XM.M.,X,XP.].+XC.&X_.b.C.C.C./.P.M.@X,XP.l.`.4X`.S.+XM.Z._.K.b.i.z.2X^.M.=X_.=X/.K.C.2X_.b.=X`.b. X XZ._.",
"z.].;X`.z.z.c.z.g.&X2X`.z.'.3X^.z.M.P.^.M.M.K./.c.l.M.z.M.+X(.d.l.@X%XP.P._.l.P.K.b.|.C.P.+XK.Z.+XU.`.&XP.Z.2XU.i.M.P./.^.K.C.Z.",
"Q.M.M.M.z._.@XM.s.M.M.P.(.3X^.i.b.^.=X`.b.J.P.;X_.&X/.M.d.l.l./.+X@XC.i.d.M.K.Q.M.d.b.@X(.l.G.2X;XM.x.Z.M.S.+X^.C.M.z.+XP.M.].J.",
"/.P.`.Q.C.2X(.b.(.(.b./.3X%XM.l._.%X:XP.K.=X+XK.P.`.M.P.S.l.(.%X2X_.d.G./.(.`.K.K.^.Z.;X(.d.z./.C.A.;X^._.;XP.x._.=XG.U._.P.P.f.",
"C.S.].K.b.P.g.f.+X@Xz.z.S.M.f.^.*XC._.M.x.C.P.z.c.l.M.@X(.l.P.U.U.b.w.`.7X;XZ.z.+X4XK.c.P.K.s.i.d.+X@XM./.2XK.l.(.P.J.P.G.M.`.`.",
"P._.M.i.K.K.f.l./.P.b.g.P.M.d.P.P.b././.P.M.Z.P. XG._.,X^.d.M.l.l.M.M.M.P.P.M.z.U.@Xl.z.@X`.J.P.`.U.+X_.Z.C.M.*X_.d.`.`.z.U.oX*X",
"(.P.M.P.@X/.z.+X).K.Z.s.=X;XS._.P.b.b.(.K.Z.;X2X'.M.) R R R R E M.+X@XC.P././.;X^.C.z._.2XP.l.@X,XS.P._.C.c.C.].(.M.H.P.^.oX'.z.",
"_.A.M.2X,XP.M.3X%XC.S.(.%X^.l.P.C.l.K.;XM.l.Q.;XE T X.<.*.<. .N E ,X%Xl.M.G.K.`.C.C.l.P.].M.P.%X,X%Xm.d.(.+XU.d.P.&Xz.Q.'._.(.d.",
"+X&XM.U.c.l.M.%X'.M.(.<XoXm.^.P.C.^./.2XC.J.^.` .. .<.9.9.9.*.....XX+XG.^.;XM.z.z._.P.M.C.M.`.Z.).@XV.Z.3X(.+X/.J._._.^.C.c.C.P.",
"+XZ.b.Z.C.S.#X'.l.c.+X,XA.S.2X+XP.@X/.S.U.W [ ..y.q.9.7.7.7.9.9.9.{ U.z././.b./.J.+X/.C.`.P.M.M.x.U.(./.+XZ.+XOXl.U.XXS.l.M._.2X",
"^.z.P.P._.oX3XS.c.Z.P.M.S././.M.l.U.].l.M.;.T.8X!.[.v.4.9.9.9.1.R b k s s s m @XP.P.C.^.2X`.C.+X+X'./.M.l.M._.U.Z.Z.U._.@X`.M.Q.",
"l.M.2X_.M.XX,XC.`.&Xm.P.+XS.M.K.K.P./.d.E N.wXtXeXwX{.N.7.+... .b s R +.+.%.} R P.C.C.;X+XM.U.%X(.M.M.P.P.C.C.U.+XZ.M.+X;XP.M.l.",
"K.P.(.P.l.^.+Xc.Z.C.A.,X(.l.Z.*X_.c.C.)  .{.rXrXtXwX{.N.7.{ m b g n 5.M.9.w.,.} [ C.P.;XK.d.(.@Xb.b.&X*XU.P.M.U.U.C.Z.Z.Z.M. XK.",
"+Xb.s.P._.K.F.l.U.D.%XXXA._.M.C.M.P.Y m 9.R..XwX0X}.v.4.9.} b g v ,.[.8X7.9.9.5.R U.z.C.z.P.@XU.z.oX,XS.Z.,X%XP.P.+X&Xb.Q.+X+Xc.",
"M.M._.2X;XJ.f./.%X,X,XA.A.;XM.g.R R v n q.9.R.[.y.i.i.5.{ [ b m 4.[.eXrX$XqXN.4.7.W P.l.P.3X,XM.^.5X5XP.K.2X%Xb.M.=X`.b.K.`.(./.",
"K.(.3XOXx.M.b.K.`.%X).M._.+XN.W +.+.+.o.} 4.d.v.7.+.o...R m g n 7.9XtXrXeX8Xn.6.9.<.W M.2X3X(.z.=X3X+Xb.g.Z.C.d.Q.^.l.^.P.d.K.2X",
"P.S.@XP.z._.+Xb.f.M.M.C.+XZ.O.&.d.d.i.<.v +.,.%.,.R N R N g v  .d.wXeX$X8XR.p.7.7.9.+.b g (.l.i.P.K.s.i.z.;X+XC.:XK.P.7X+Xz.P.2X",
"Z.(.@XC. X(.+X+Xz.^.;X].l.X.,.h.{.{.h.%.R v g s s s m N s s  .l.wXwX{.T.W.q.5.7.7.7.9.<.g s.c.C.d.M.P.P.K.5X%XP.*XP.P./.K.M.U.2X",
"K.Z.M.z.G.b.S.@X(.K.`.Q.W O.n.eXqX.Xn.4.5.{ v s s s s s s s ..y.p.W.n.q.q.9.9.9.9.i.o.v s v @X;Xz./.yX3XZ.+X(.C.P.P.G.z.P.U.K.~.",
"K.M.Z.K.i.z.@XyX;Xl.g.l.+.q.[.tX}.N.i.7.9.} b i s i i i s s [ +...p.i.6.7.9.&.} }  .n g ..g c (.z.+X5X(.l.M.l.M.U.`.l.C.;X*Xl.s.",
"/.P.P.+X`.K.U.S.M.a.P.#.9.T.!.{.N.9.7.7.1.} N N N n n n N v v N N %.7.9.7.5.R s [ n b } q.} v g g 3X+Xx.K.L.M.M.+XS.C.U.C.M.M.(.",
"A.Z.M.Q.`.M.b.P.K.G.S.{ 7.T.h.q.q.7.5.<.R R %.9.7.7.9.9.9.n s v v N &.9.9.N i { !.i.7.9.7.q.+.R [ g z.M.`.U.].Q.Q.D.;X*XS.P._.P.",
"2X_.M.M.M.f.M.@X%XP.C.{ 9.q.q.5.+.7.*.} [ v  .d.qX!.p.7.7.5. .b g v R } N v v } p.9.7.9.9.o.[ [ [ g M./.c.U.uX`.C.%X+XC.^.4X+Xl.",
"6X(._.2X/.C._.@X3X^.T { %.1.9.4.R +...R m s  .d.wXT.i.7.9.,. .N g s n N s g m { +.7.<.+.+.[ R R b i &X@X_.(.2XP./.S.m.P./.P.Z.P.",
"P.Z./._.A.S.U.D.%Xk v R N ,.7.,.R R R N s v o.i.N.q.4.4.5.{ N N g s b N g g m R m <.o.N R R R N k a 4X6X/.C.Z.c.z.J.K.`._.M.P.C.",
"M.*XJ.z.).,X(.C.C.a i v [ R R R [ [ m g g <.9.9.9.q.+.R R [ m g g s s v g R [ R [ R R [ [ b i a M._.(.C.M.l.@X*Xz.M.&XZ.S._.z.z.",
"K.=XZ.Z.@X+X/.z.i.M.Q g v N [ R v b s u g N } +.9.o.{ [ [ b v g s s i 6 6 u s b b b b g i 6 x /.M.].M.K.P.P.3XoXl.P.^.S.&X;XU.Z.",
"M.K.K.U.M.M.+XP.C.@X5Xi s b N b s i z x i s g R &.[ N m m g s s u u l c.d.P.z i i i i a U x ;XU.z.A.(.%X=X_.,X(.M.+XU.+XP.P.`.K.",
";X_.P.^.M.+X/.M.(.5X@Xu s s s s s u M.P.u s g v N R b s g s s s a u P.].'.^.`.u a a u l /.&XU.J./.A.,XoXP.'.,X/.M.*X(.'.Z.Z.z.M.",
"+XC._.+XZ.=XP.M.%X%XM.l.6 6 6 6 6 M.=X;XC.5 4 v v v v g s u 3 B oX^.P.+X+Xg.J.(.P.C.` R R R R R R A.+XS.l.P.P.c.J.U.C.l./.+XZ.L.",
"(.Z.P.P.M.P.G.b.@XP.s.S.'.A.M. X`.+X2XS.U.P.d % 3 % 6 u 6 M.z.(.oXM.Z.+XM.s.+XyXl ` W [ %.%.&.*.,.! ~.`./.U.c.U.&XM.c.J.*XP.U.+X",
"&X].f.b. XP.g.z.C.z.(.3X_.z.+X6X+X(.P.l.P./.f.. = = & + x d./.2X^.x.@X2XM.M._._.i m { &.Z.M.p.9.9.b x M.#X+XC._.&XC.P.P. XP.P.7X",
"b._.S.M.P./.c.P. Xz./.2XC.z.=X(.S.l.l.^.P.c.+X# , , = 7 i.Z.@X%XS.(.3X(.d.`.P.6 { R %.b.iX}.v.5.7. .s a b.M.l.^.P.C./.M.l.C.l.U.",
"M.(.2XP.z.M.x.P./.l.M.M.f.C.S.S._.z./.;XP.J.:X# , Z < + b.+X,XP.y.^.=XM.a. X&Xs 9.7.N.}.}.p.9.9.9.} R M y &X`.b.l.d.S.@X>X+Xb.^.",
"P.M.(.z./.2X(.Z.M.+X+XK.b.+XOX/./.b.=XP.c Y z f 4 G A = +X2X/.d.d.M.z.w.i.z.a g } X.&.q.v.q.&...o.{ m v s z P.P.(.P.U.oX,X(.l./.",
"M.l.M.z._.6X;XU.M./.+XP.P.5X3XJ.g.b.P.i.| | .. .W P G K = . . z.+X3XP.M._.(.a s i b b N %.<. .m R N v s v 6 c.+X3X_.Z.P.P.l.s.M.",
"M.U._.l.l.C.Z.P.M.C.J.f.z./.Z.i.G._.Y L !.!.h.7.-.-.F Z Z Z # # . ,XM./.3X,Xx.6 u s g v R R R R R v s s s 6 b.K.P.l.d./.M.P.=X@X",
"J.(.3X_.M.U.P.g.b.*X+Xg.a.M.U.J./.` +.9.y.y.q.9.-.~ ~ F r A A A A 5 o o o oXl.P.M.z 6 u v v v v v s u u 6 @XK.z.M.(.(.^.l._.yX@X",
"C.U.+X`.K.*X~.b.C.2X@Xz.z.+X5X_.P.E | %.o.o.o.o.~ ~ 6 ~ 6 = r H K 2 1 1 = b.M.&XK.o l l u i i i i u 6 u K.@XP.M.U.2X2X2X/.P.U.C.",
"2X/.x.z.b.Z.M._.S.M.S.M.Z.3X_.l.l.E m m m N N b v 6 (.M.z.p 9 A P G D S e $ M._.  8 P./.z x a 6 6 l B ^.b.P.C.P.@XoXm.Z.K.d.l.Z.",
"/.J.z.P._.U.(.%X/.c.+XP./.%Xz.P.*XM g v g R m s p + _.b.K.U./.  . t S A A e = . # _.C./.b.P.5X6 u +X3X/.M.P._.U.@X).`.^.Z.P.Q.=X",
"K.b.M.(.S.l.%X,XS.S.5X^.P._.c.@X+Xc.Q 3 6 g i a *X(.l.M._.5X%Xb.M.5 2 G A Z A r = & P.:XH.J.*XK.z.=X%XS.Q./.+XU.U.P.`./._.;XZ./.",
"`.M._.2XZ.M.%X%XC.(.@Xl.z.Z./.=Xz.C.P.OXP.z./.P.&XC.z.(.Y.XX(.z.M.M.h 1 S D Z 2 > & M.`.G.~.|.s.J.;XS.C.`.M.S.+XM.M.M.d.b.P.U.OX",
"Z.C.S.@X^.(.+XC.l.@X+Xd.].=XZ.Z.M.;XU.P.P.Y.C.M.b.l.+X@XZ.`.z.L.@X*XK.= S D 2 = = - M._./.M.l.z.C.S.S.+X;XM.^.%X(.:XI.P.P.P.*XU.",
"^.^.K./.+X(.Z.M.C./.(.P.=X(.M.M.(.;XM.l.U.*XP.Z.9 ( 2X(.C./.z.'.;X0 < G A D 2 $ &   +X2X`.f.P.%X).Z.^.;XP.d.K.Z.Z./.d.=X=XZ.P.v.",
"%X%XC.g.G.d.l.'./.l.(.=X^.l.U.S.(._.K.P.U.P.m.oXS.Z.o C.P.M.h 7 0 w A S D 2 $ #   C.(.M.K.b./.5X@XM._.(.l.K.P.M.z.C.c.`.(.C.M.&X",
"2X3XU.i.i.P.@X,XP.C.%XZ.f.l.XX#X^.Z.z._.2X_.^.2XS.A.C.. `.t Z e ; A Z 2 2 $ # & +XP.K.C.&X/.P.3X/.z./.;XC.*X6XP.K.2X+Xl._.4XZ.U.",
"P.`.P.M.^.,X3X+Xb.Z.2X`.f.S.%X+XM.z.M.+X_.M.G.K.^.*X+X# $ K I P D A 2 = $ # . %X6X~.z.P.U.K.M.(.J.G.U.2XZ.`.'.M.U.+XQ.b./.+XC.^.",
"`.b.b.'.3X,X(.M.i.b./.&Xc.@X+XM.i.8.j.i.6.b.d.b.K.0 # r I G A S D ; * $ .   z.&X`.z.M.'._.b.K.b.z.&X%X(.z.v.v.P._.C.l.z.P.P.K.*X",
"&XF.M.P.+X^.z.d.Z.d.f.b.c._.x.l.O.] :.! ! J.l.0 j t r Z J Z : : : ; $ 8 ^.`.z.M.l.C.;X+XM.M.;X=XP./.3Xx.P.=XZ.;X@Xl.S.(./.K.K.z.",
"g.i.b.Z.S.G.p.^.;XM.z.C.U.P.6.! C / / C d Q q # = A D A e : ; $ * $ # 0 I.^.z.M./.%X%XK.z.P.+XU.M.~._.Z.=X:XK.+X`.b.+X;X~.M._.K.",
"P.P.M.P._.z.M.<X,XZ./.,XE.6./ ' 6.:.O.! 8.X # ; ; Z A Z > ; * * $ # X 6.V Q ' / 8.M.l.z.=X&XM.C.#X/.f.Z.@XS.M.P.g.b.+X^.Z.Q.*X~.",
"(.;X'.P.+Xb.P.6X(.l.P.,XS.-.l 8.-.:.8.] 8 $ = > , , ; * * * * $ .   >.( O.1.-.@.l d @.6.8.;./ @.M.l.s.P.^.m.'._.b.M.M.Z.Z.S.U.z.",
"C.P._.Z./.g.(.,XZ.s.C.C.e.( =.c.:.s.t.i.. * ; > > ; ; * * $ # # . # q 6.Q 8.i.8.s.-.Q V =.0.6.@.' 9.l.+X].l.^.U.P.U.r.P.M.^.].M.",
"].M.`.P.~.M.oXoXm./._.j.@.C e.j.>.@.7.O # - - - ; * $ $ $ # . . # O . . 2.=.>.=.6.s.Q Q s.j.0.7.' e.U.oXU.C.M.P.@X+Xc.&XP.P.=XC.",
"/.M.M.z.z.P._.M.K.3X3XP.9.l =.u.6.0.@ # < s.6.s.= < 9 . . # f.>.. j.C.# . 8.i.>.l.6./ :.8.e.i.P.>.;.A.C.M./.M.P.2XP.K.+XU.d.Z.P.",
"S._.M.Q.@X^.l.d.M.,X<X(.l.@./ s.-.s.s.s.l.6.6.9 3.l.s.C.& Z.6.8.t.k.:.8.Z.z.-.6.i.i.C >.s.z.9.t.4.;.C.(.P._./.M.P.M.].^.P.C.(.P.",
"^._.l.oX<X^.K.].A.@X(.m._.t.' $.! C l./ t.r.s.t.9.s.8.s.f.P.8.r.B.e.e.s.e.2.9.s.6.6.l 6.6.;.z.A.=.=.l.A.S.2XP.K.P.P.@X+X~.C.@XP.",
"J.M.K.^.%XS.P.].P.*XP.M._.Z.z.t.y ' 3.:.:.9.4.8.j.l.8.9.6.z.8.6.C.z.8.@.i.r.:.e.:.' Q i.s.z.:.2.' -.z.Z.C.'.M.J.I.P.@X+Xz.l.D.K.",
"z._.^.M.oX(.C./.U.1X^.P.P.(._.C.! C r.9.>.z.=.9.j.M.G.>.8.s.>.9.r.t.9.e.=.s.t.>.Q Q :.l ;.;.] 8.0.l.+X+Xz.s.K.@XP.v.A.M.g.P.2X_.",
"K.@XP.N.%XoXJ./.Z./.Z.K.+X2XC.P.r./ @.c.9.9.6.j.8.9.r.6.c.l.6.e.s.s.s.i.6.>.@.Q ] Z.9.8.c.x.x.@Xs.U.6X%XM.M.*X@XS.`.'.M.c.).U.Z.",
"P.+XJ.^.6XoXz.l.P.A.M.C.*X(.d./.OXt.Q ] @.C / _ ;.=.:.e.4.8.:.$.>.' C ~ ! / ! 9.c.(.;XP.+X@X].P.g.&X6X(.m.@X;XP.Z.2X+Xc.U.+XM.c.",
"C.C.z.K.+X^.d.M.;X3X2XP.M.s.b.P.C.j.V.x.6.' ] ' ] ] ' _ ' ! l @.V Q ! K.*XM.b.=XP.J.^.M.Z.P.C.C.Q.`.U.C.(.%XP.A.^.C.A.P.S.(.+Xz.",
"+X/.M.p.f.c.z.`.2X@X].G.i.M.2X:Xz.B.OXQ.d._.,X8.3.6.:.@.@.@.3.j.s.d.J.&XP.f.z.~.G.b.K.g.K.M.M.2X4XZ.l.M.K.J.P.+X`.M.U.@XM._.2XM."
};
